<?xml version="1.0" encoding="UTF-8"?>
<!DOCTYPE svg PUBLIC "-//W3C//DTD SVG 1.1//EN" "http://www.w3.org/Graphics/SVG/1.1/DTD/svg11.dtd">
<svg xmlns="http://www.w3.org/2000/svg" version="1.1" width="535px" height="524px" style="shape-rendering:geometricPrecision; text-rendering:geometricPrecision; image-rendering:optimizeQuality; fill-rule:evenodd; clip-rule:evenodd" xmlns:xlink="http://www.w3.org/1999/xlink">
<g><path style="opacity:0.961" fill="#fefefe" d="M 248.5,19.5 C 351.376,15.3417 429.543,56.675 483,143.5C 520.945,216.554 522.945,290.554 489,365.5C 447.687,443.274 383.187,488.107 295.5,500C 202.249,506.941 127.082,473.775 70,400.5C 20.6639,327.142 11.9973,249.142 44,166.5C 78.0222,92.4833 134.522,45.3166 213.5,25C 225.247,22.7287 236.914,20.8954 248.5,19.5 Z"/></g>
<g><path style="opacity:1" fill="#090808" d="M 266.5,43.5 C 348.701,45.3358 412.201,80.3358 457,148.5C 499.229,223.717 498.895,298.717 456,373.5C 411.478,439.605 349.144,473.939 269,476.5C 188.85,473.936 126.517,439.603 82,373.5C 44.4111,308.313 40.0778,240.979 69,171.5C 98.9549,109.549 147.122,69.3825 213.5,51C 231.059,46.6688 248.725,44.1688 266.5,43.5 Z"/></g>
<g><path style="opacity:0.977" fill="#fefffe" d="M 109.5,148.5 C 121.833,148.5 134.167,148.5 146.5,148.5C 146.5,215.5 146.5,282.5 146.5,349.5C 134.167,349.5 121.833,349.5 109.5,349.5C 109.5,282.5 109.5,215.5 109.5,148.5 Z"/></g>
<g><path style="opacity:0.976" fill="#fefefe" d="M 267.5,148.5 C 284.837,148.333 302.17,148.5 319.5,149C 285.5,182.333 251.5,215.667 217.5,249C 241.5,272.667 265.5,296.333 289.5,320C 291.453,321.633 293.62,322.799 296,323.5C 334.56,314.568 373.06,305.402 411.5,296C 390.685,273.351 369.352,251.185 347.5,229.5C 331.5,243.833 315.5,258.167 299.5,272.5C 292.511,265.343 285.678,258.01 279,250.5C 278.837,248.613 279.671,247.113 281.5,246C 304.017,225.315 326.684,204.815 349.5,184.5C 385.155,221.656 420.655,258.989 456,296.5C 460.924,307.397 458.09,315.564 447.5,321C 390.906,334.65 334.239,347.65 277.5,360C 247.528,329.028 217.195,298.361 186.5,268C 177.84,267.5 169.173,267.334 160.5,267.5C 160.5,255.167 160.5,242.833 160.5,230.5C 169.173,230.666 177.84,230.5 186.5,230C 213.702,202.965 240.702,175.799 267.5,148.5 Z"/></g>
</svg>
