<?xml version="1.0" encoding="UTF-8"?>
<!DOCTYPE svg PUBLIC "-//W3C//DTD SVG 1.1//EN" "http://www.w3.org/Graphics/SVG/1.1/DTD/svg11.dtd">
<svg xmlns="http://www.w3.org/2000/svg" version="1.1" width="535px" height="524px" style="shape-rendering:geometricPrecision; text-rendering:geometricPrecision; image-rendering:optimizeQuality; fill-rule:evenodd; clip-rule:evenodd" xmlns:xlink="http://www.w3.org/1999/xlink">
<g><path style="opacity:1" fill="#100d0d" d="M 356.5,35.5 C 357.78,36.9313 359.447,37.5979 361.5,37.5C 362.78,38.9313 364.447,39.5979 366.5,39.5C 368.153,39.6596 369.486,40.3263 370.5,41.5C 371.78,42.9313 373.447,43.5979 375.5,43.5C 377.153,43.6596 378.486,44.3263 379.5,45.5C 382.008,47.9236 385.008,49.5903 388.5,50.5C 389.492,50.3284 390.158,50.6618 390.5,51.5C 391.659,53.2503 393.326,54.2503 395.5,54.5C 396.492,54.3284 397.158,54.6618 397.5,55.5C 397.973,56.9063 398.973,57.573 400.5,57.5C 400.973,58.9063 401.973,59.573 403.5,59.5C 403.973,60.9063 404.973,61.573 406.5,61.5C 406.973,62.9063 407.973,63.573 409.5,63.5C 409.973,64.9063 410.973,65.573 412.5,65.5C 413.167,65.5 413.5,65.8333 413.5,66.5C 413.973,67.9063 414.973,68.573 416.5,68.5C 417.167,68.5 417.5,68.8333 417.5,69.5C 417.973,70.9063 418.973,71.573 420.5,71.5C 421.167,71.5 421.5,71.8333 421.5,72.5C 422.262,74.2624 423.596,75.2624 425.5,75.5C 426.833,76.1667 427.833,77.1667 428.5,78.5C 429.262,80.2624 430.596,81.2624 432.5,81.5C 434.833,83.1667 436.833,85.1667 438.5,87.5C 439.167,88.8333 440.167,89.8333 441.5,90.5C 442.167,91.8333 443.167,92.8333 444.5,93.5C 447.167,95.5 449.5,97.8333 451.5,100.5C 452.08,102.749 453.413,104.415 455.5,105.5C 456.5,105.833 457.167,106.5 457.5,107.5C 457.738,109.404 458.738,110.738 460.5,111.5C 461.167,111.5 461.5,111.833 461.5,112.5C 461.738,114.404 462.738,115.738 464.5,116.5C 464.738,118.404 465.738,119.738 467.5,120.5C 467.427,122.027 468.094,123.027 469.5,123.5C 471.326,125.147 472.66,127.147 473.5,129.5C 473.427,131.027 474.094,132.027 475.5,132.5C 475.427,134.027 476.094,135.027 477.5,135.5C 478.338,135.842 478.672,136.508 478.5,137.5C 478.427,139.027 479.094,140.027 480.5,140.5C 481.338,140.842 481.672,141.508 481.5,142.5C 481.75,144.674 482.75,146.341 484.5,147.5C 486.674,150.515 488.341,153.849 489.5,157.5C 489.707,160.241 490.707,162.574 492.5,164.5C 493.338,164.842 493.672,165.508 493.5,166.5C 493.402,168.553 494.069,170.22 495.5,171.5C 495.402,173.553 496.069,175.22 497.5,176.5C 518.486,231.375 518.819,286.375 498.5,341.5C 497.069,342.78 496.402,344.447 496.5,346.5C 495.069,347.78 494.402,349.447 494.5,351.5C 493.618,355.593 491.951,359.26 489.5,362.5C 488.326,363.514 487.66,364.847 487.5,366.5C 486.341,370.151 484.674,373.485 482.5,376.5C 481.094,376.973 480.427,377.973 480.5,379.5C 480.34,381.153 479.674,382.486 478.5,383.5C 477.094,383.973 476.427,384.973 476.5,386.5C 475.094,386.973 474.427,387.973 474.5,389.5C 473.66,391.853 472.326,393.853 470.5,395.5C 469.094,395.973 468.427,396.973 468.5,398.5C 467.094,398.973 466.427,399.973 466.5,401.5C 466.5,402.167 466.167,402.5 465.5,402.5C 464.094,402.973 463.427,403.973 463.5,405.5C 463.5,406.167 463.167,406.5 462.5,406.5C 460.738,407.262 459.738,408.596 459.5,410.5C 459.167,411.5 458.5,412.167 457.5,412.5C 456.094,412.973 455.427,413.973 455.5,415.5C 454.833,416.833 453.833,417.833 452.5,418.5C 448.766,421.231 445.766,424.564 443.5,428.5C 442.833,429.833 441.833,430.833 440.5,431.5C 436.9,433.43 433.9,436.097 431.5,439.5C 431.167,440.5 430.5,441.167 429.5,441.5C 427.251,442.08 425.585,443.413 424.5,445.5C 424.167,446.5 423.5,447.167 422.5,447.5C 420.973,447.427 419.973,448.094 419.5,449.5C 419.5,450.167 419.167,450.5 418.5,450.5C 416.973,450.427 415.973,451.094 415.5,452.5C 415.5,453.167 415.167,453.5 414.5,453.5C 412.973,453.427 411.973,454.094 411.5,455.5C 409.973,455.427 408.973,456.094 408.5,457.5C 407.564,458.974 406.23,459.974 404.5,460.5C 402.973,460.427 401.973,461.094 401.5,462.5C 401.158,463.338 400.492,463.672 399.5,463.5C 397.973,463.427 396.973,464.094 396.5,465.5C 394.326,465.75 392.659,466.75 391.5,468.5C 391.158,469.338 390.492,469.672 389.5,469.5C 384.68,471.074 380.347,473.407 376.5,476.5C 376.158,477.338 375.492,477.672 374.5,477.5C 372.447,477.402 370.78,478.069 369.5,479.5C 369.158,480.338 368.492,480.672 367.5,480.5C 365.447,480.402 363.78,481.069 362.5,482.5C 361.22,483.931 359.553,484.598 357.5,484.5C 355.447,484.402 353.78,485.069 352.5,486.5C 312.302,501.039 270.968,504.872 228.5,498C 215.769,495.915 203.436,492.748 191.5,488.5C 190.22,487.069 188.553,486.402 186.5,486.5C 180.121,484.933 174.121,482.6 168.5,479.5C 162.818,475.992 156.818,472.992 150.5,470.5C 148.847,470.34 147.514,469.674 146.5,468.5C 145.341,466.75 143.674,465.75 141.5,465.5C 141.027,464.094 140.027,463.427 138.5,463.5C 137.341,461.75 135.674,460.75 133.5,460.5C 131.77,459.974 130.436,458.974 129.5,457.5C 129.027,456.094 128.027,455.427 126.5,455.5C 126.027,454.094 125.027,453.427 123.5,453.5C 122.833,453.5 122.5,453.167 122.5,452.5C 122.027,451.094 121.027,450.427 119.5,450.5C 118.833,450.5 118.5,450.167 118.5,449.5C 117.738,447.738 116.404,446.738 114.5,446.5C 113.833,446.5 113.5,446.167 113.5,445.5C 112.415,443.413 110.749,442.08 108.5,441.5C 107.167,440.833 106.167,439.833 105.5,438.5C 99.5,431.833 93.1667,425.5 86.5,419.5C 85.1667,418.833 84.1667,417.833 83.5,416.5C 83.2624,414.596 82.2624,413.262 80.5,412.5C 79.5,412.167 78.8333,411.5 78.5,410.5C 78.2624,408.596 77.2624,407.262 75.5,406.5C 74.8333,406.5 74.5,406.167 74.5,405.5C 74.573,403.973 73.9063,402.973 72.5,402.5C 72.2624,400.596 71.2624,399.262 69.5,398.5C 69.573,396.973 68.9063,395.973 67.5,395.5C 67.573,393.973 66.9063,392.973 65.5,392.5C 65.573,390.973 64.9063,389.973 63.5,389.5C 63.573,387.973 62.9063,386.973 61.5,386.5C 61.2503,384.326 60.2503,382.659 58.5,381.5C 57.6618,381.158 57.3284,380.492 57.5,379.5C 57.573,377.973 56.9063,376.973 55.5,376.5C 51.9922,370.818 48.9922,364.818 46.5,358.5C 46.5979,356.447 45.9313,354.78 44.5,353.5C 42.5968,350.47 41.2635,347.137 40.5,343.5C 40.5979,341.447 39.9313,339.78 38.5,338.5C 27.0053,306.232 22.8386,272.899 26,238.5C 28.178,211.778 35.0114,186.445 46.5,162.5C 48.2927,160.574 49.2927,158.241 49.5,155.5C 49.6596,153.847 50.3263,152.514 51.5,151.5C 53.588,149.664 54.9213,147.331 55.5,144.5C 55.6596,142.847 56.3263,141.514 57.5,140.5C 58.9063,140.027 59.573,139.027 59.5,137.5C 59.3284,136.508 59.6618,135.842 60.5,135.5C 61.9063,135.027 62.573,134.027 62.5,132.5C 63.9063,132.027 64.573,131.027 64.5,129.5C 65.9063,129.027 66.573,128.027 66.5,126.5C 67.9063,126.027 68.573,125.027 68.5,123.5C 69.9063,123.027 70.573,122.027 70.5,120.5C 70.5,119.833 70.8333,119.5 71.5,119.5C 72.9063,119.027 73.573,118.027 73.5,116.5C 73.5,115.833 73.8333,115.5 74.5,115.5C 75.9063,115.027 76.573,114.027 76.5,112.5C 76.5,111.833 76.8333,111.5 77.5,111.5C 79.2624,110.738 80.2624,109.404 80.5,107.5C 80.8333,106.5 81.5,105.833 82.5,105.5C 84.914,104.089 86.5806,102.089 87.5,99.5C 90.1667,96.1667 93.1667,93.1667 96.5,90.5C 97.5,90.1667 98.1667,89.5 98.5,88.5C 99.8333,86.5 101.5,84.8333 103.5,83.5C 106.089,82.5806 108.089,80.914 109.5,78.5C 109.833,77.5 110.5,76.8333 111.5,76.5C 113.404,76.2624 114.738,75.2624 115.5,73.5C 115.5,72.8333 115.833,72.5 116.5,72.5C 118.404,72.2624 119.738,71.2624 120.5,69.5C 120.5,68.8333 120.833,68.5 121.5,68.5C 123.027,68.573 124.027,67.9063 124.5,66.5C 126.027,66.573 127.027,65.9063 127.5,64.5C 127.5,63.8333 127.833,63.5 128.5,63.5C 130.027,63.573 131.027,62.9063 131.5,61.5C 133.027,61.573 134.027,60.9063 134.5,59.5C 136.027,59.573 137.027,58.9063 137.5,57.5C 137.842,56.6618 138.508,56.3284 139.5,56.5C 141.027,56.573 142.027,55.9063 142.5,54.5C 144.674,54.2503 146.341,53.2503 147.5,51.5C 148.514,50.3263 149.847,49.6596 151.5,49.5C 153.819,49.0075 155.819,48.0075 157.5,46.5C 161.151,45.3411 164.485,43.6744 167.5,41.5C 168.514,40.3263 169.847,39.6596 171.5,39.5C 173.553,39.5979 175.22,38.9313 176.5,37.5C 178.89,35.9802 181.557,34.9802 184.5,34.5C 186.553,34.5979 188.22,33.9313 189.5,32.5C 191.786,32.405 193.786,31.7384 195.5,30.5C 225.982,20.8014 257.316,17.3014 289.5,20C 312.794,21.5757 335.127,26.7423 356.5,35.5 Z"/></g>
<g><path style="opacity:0.432" fill="#fefffe" d="M 195.5,30.5 C 193.786,31.7384 191.786,32.405 189.5,32.5C 191.102,30.9261 193.102,30.2594 195.5,30.5 Z"/></g>
<g><path style="opacity:0.374" fill="#ececec" d="M 189.5,32.5 C 188.22,33.9313 186.553,34.5979 184.5,34.5C 185.78,33.0687 187.447,32.4021 189.5,32.5 Z"/></g>
<g><path style="opacity:0.402" fill="#fefffe" d="M 356.5,35.5 C 358.553,35.4021 360.22,36.0687 361.5,37.5C 359.447,37.5979 357.78,36.9313 356.5,35.5 Z"/></g>
<g><path style="opacity:0.38" fill="#fefffe" d="M 176.5,37.5 C 175.22,38.9313 173.553,39.5979 171.5,39.5C 172.78,38.0687 174.447,37.4021 176.5,37.5 Z"/></g>
<g><path style="opacity:0.405" fill="#fefffe" d="M 361.5,37.5 C 363.553,37.4021 365.22,38.0687 366.5,39.5C 364.447,39.5979 362.78,38.9313 361.5,37.5 Z"/></g>
<g><path style="opacity:0.423" fill="#fefffe" d="M 370.5,41.5 C 372.553,41.4021 374.22,42.0687 375.5,43.5C 373.447,43.5979 371.78,42.9313 370.5,41.5 Z"/></g>
<g><path style="opacity:1" fill="#eeeeee" d="M 250.5,43.5 C 343.214,39.7642 413.714,77.0976 462,155.5C 498.453,226.015 498.12,296.349 461,366.5C 416.992,438.027 352.659,475.027 268,477.5C 200.101,475.378 143.768,449.045 99,398.5C 46.7103,330.812 35.7103,256.812 66,176.5C 102.791,98.0103 164.291,53.677 250.5,43.5 Z"/></g>
<g><path style="opacity:0.247" fill="#f7f7f7" d="M 167.5,41.5 C 164.485,43.6744 161.151,45.3411 157.5,46.5C 160.247,43.7933 163.58,42.1266 167.5,41.5 Z"/></g>
<g><path style="opacity:0.489" fill="#fefffe" d="M 157.5,46.5 C 155.819,48.0075 153.819,49.0075 151.5,49.5C 152.911,47.461 154.911,46.461 157.5,46.5 Z"/></g>
<g><path style="opacity:0.406" fill="#fbfbfb" d="M 379.5,45.5 C 382.992,46.4097 385.992,48.0764 388.5,50.5C 385.008,49.5903 382.008,47.9236 379.5,45.5 Z"/></g>
<g><path style="opacity:0.416" fill="#fefffe" d="M 147.5,51.5 C 146.341,53.2503 144.674,54.2503 142.5,54.5C 143.659,52.7497 145.326,51.7497 147.5,51.5 Z"/></g>
<g><path style="opacity:0.394" fill="#fafafa" d="M 390.5,51.5 C 392.674,51.7497 394.341,52.7497 395.5,54.5C 393.326,54.2503 391.659,53.2503 390.5,51.5 Z"/></g>
<g><path style="opacity:0.973" fill="#d7d6d6" d="M 142.5,54.5 C 142.027,55.9063 141.027,56.573 139.5,56.5C 139.973,55.0937 140.973,54.427 142.5,54.5 Z"/></g>
<g><path style="opacity:0.35" fill="#fefffe" d="M 397.5,55.5 C 399.027,55.427 400.027,56.0937 400.5,57.5C 398.973,57.573 397.973,56.9063 397.5,55.5 Z"/></g>
<g><path style="opacity:0.386" fill="#fefffe" d="M 137.5,57.5 C 137.027,58.9063 136.027,59.573 134.5,59.5C 134.973,58.0937 135.973,57.427 137.5,57.5 Z"/></g>
<g><path style="opacity:0.419" fill="#fefffe" d="M 400.5,57.5 C 402.027,57.427 403.027,58.0937 403.5,59.5C 401.973,59.573 400.973,58.9063 400.5,57.5 Z"/></g>
<g><path style="opacity:0.438" fill="#fefffe" d="M 134.5,59.5 C 134.027,60.9063 133.027,61.573 131.5,61.5C 131.973,60.0937 132.973,59.427 134.5,59.5 Z"/></g>
<g><path style="opacity:0.345" fill="#fdfdfd" d="M 403.5,59.5 C 405.027,59.427 406.027,60.0937 406.5,61.5C 404.973,61.573 403.973,60.9063 403.5,59.5 Z"/></g>
<g><path style="opacity:0.382" fill="#fefffe" d="M 131.5,61.5 C 131.027,62.9063 130.027,63.573 128.5,63.5C 128.973,62.0937 129.973,61.427 131.5,61.5 Z"/></g>
<g><path style="opacity:0.417" fill="#fefffe" d="M 406.5,61.5 C 408.027,61.427 409.027,62.0937 409.5,63.5C 407.973,63.573 406.973,62.9063 406.5,61.5 Z"/></g>
<g><path style="opacity:0.352" fill="#fefffe" d="M 409.5,63.5 C 411.027,63.427 412.027,64.0937 412.5,65.5C 410.973,65.573 409.973,64.9063 409.5,63.5 Z"/></g>
<g><path style="opacity:0.992" fill="#b6b6b6" d="M 127.5,64.5 C 127.027,65.9063 126.027,66.573 124.5,66.5C 124.973,65.0937 125.973,64.427 127.5,64.5 Z"/></g>
<g><path style="opacity:0.425" fill="#fefffe" d="M 124.5,66.5 C 124.027,67.9063 123.027,68.573 121.5,68.5C 121.973,67.0937 122.973,66.427 124.5,66.5 Z"/></g>
<g><path style="opacity:0.462" fill="#fefffe" d="M 413.5,66.5 C 415.027,66.427 416.027,67.0937 416.5,68.5C 414.973,68.573 413.973,67.9063 413.5,66.5 Z"/></g>
<g><path style="opacity:0.368" fill="#fafafa" d="M 120.5,69.5 C 119.738,71.2624 118.404,72.2624 116.5,72.5C 117.262,70.7376 118.596,69.7376 120.5,69.5 Z"/></g>
<g><path style="opacity:0.404" fill="#fefffe" d="M 417.5,69.5 C 419.027,69.427 420.027,70.0937 420.5,71.5C 418.973,71.573 417.973,70.9063 417.5,69.5 Z"/></g>
<g><path style="opacity:0.387" fill="#fefffe" d="M 421.5,72.5 C 423.404,72.7376 424.738,73.7376 425.5,75.5C 423.596,75.2624 422.262,74.2624 421.5,72.5 Z"/></g>
<g><path style="opacity:0.465" fill="#fefffe" d="M 115.5,73.5 C 114.738,75.2624 113.404,76.2624 111.5,76.5C 112.262,74.7376 113.596,73.7376 115.5,73.5 Z"/></g>
<g><path style="opacity:0.426" fill="#ececec" d="M 109.5,78.5 C 108.089,80.914 106.089,82.5806 103.5,83.5C 104.911,81.086 106.911,79.4194 109.5,78.5 Z"/></g>
<g><path style="opacity:0.428" fill="#fefffe" d="M 428.5,78.5 C 430.404,78.7376 431.738,79.7376 432.5,81.5C 430.596,81.2624 429.262,80.2624 428.5,78.5 Z"/></g>
<g><path style="opacity:0.379" fill="#fefffe" d="M 438.5,87.5 C 440.5,87.5 441.5,88.5 441.5,90.5C 440.167,89.8333 439.167,88.8333 438.5,87.5 Z"/></g>
<g><path style="opacity:0.397" fill="#fefffe" d="M 98.5,88.5 C 98.1667,89.5 97.5,90.1667 96.5,90.5C 96.5,89.1667 97.1667,88.5 98.5,88.5 Z"/></g>
<g><path style="opacity:0.393" fill="#fefffe" d="M 441.5,90.5 C 443.5,90.5 444.5,91.5 444.5,93.5C 443.167,92.8333 442.167,91.8333 441.5,90.5 Z"/></g>
<g><path style="opacity:0.388" fill="#f7f7f7" d="M 87.5,99.5 C 86.5806,102.089 84.914,104.089 82.5,105.5C 83.4194,102.911 85.086,100.911 87.5,99.5 Z"/></g>
<g><path style="opacity:0.423" fill="#fefffe" d="M 451.5,100.5 C 453.587,101.585 454.92,103.251 455.5,105.5C 453.413,104.415 452.08,102.749 451.5,100.5 Z"/></g>
<g><path style="opacity:0.396" fill="#fefffe" d="M 80.5,107.5 C 80.2624,109.404 79.2624,110.738 77.5,111.5C 77.7376,109.596 78.7376,108.262 80.5,107.5 Z"/></g>
<g><path style="opacity:0.371" fill="#fdfdfd" d="M 457.5,107.5 C 459.262,108.262 460.262,109.596 460.5,111.5C 458.738,110.738 457.738,109.404 457.5,107.5 Z"/></g>
<g><path style="opacity:0.443" fill="#fefffe" d="M 76.5,112.5 C 76.573,114.027 75.9063,115.027 74.5,115.5C 74.427,113.973 75.0937,112.973 76.5,112.5 Z"/></g>
<g><path style="opacity:0.416" fill="#fefffe" d="M 461.5,112.5 C 463.262,113.262 464.262,114.596 464.5,116.5C 462.738,115.738 461.738,114.404 461.5,112.5 Z"/></g>
<g><path style="opacity:0.48" fill="#fefffe" d="M 73.5,116.5 C 73.573,118.027 72.9063,119.027 71.5,119.5C 71.427,117.973 72.0937,116.973 73.5,116.5 Z"/></g>
<g><path style="opacity:0.332" fill="#eaeaea" d="M 464.5,116.5 C 466.262,117.262 467.262,118.596 467.5,120.5C 465.738,119.738 464.738,118.404 464.5,116.5 Z"/></g>
<g><path style="opacity:0.389" fill="#fefffe" d="M 70.5,120.5 C 70.573,122.027 69.9063,123.027 68.5,123.5C 68.427,121.973 69.0937,120.973 70.5,120.5 Z"/></g>
<g><path style="opacity:0.433" fill="#fefffe" d="M 467.5,120.5 C 468.906,120.973 469.573,121.973 469.5,123.5C 468.094,123.027 467.427,122.027 467.5,120.5 Z"/></g>
<g><path style="opacity:0.949" fill="#ebebeb" d="M 68.5,123.5 C 68.573,125.027 67.9063,126.027 66.5,126.5C 66.427,124.973 67.0937,123.973 68.5,123.5 Z"/></g>
<g><path style="opacity:0.918" fill="#fbfbfb" d="M 66.5,126.5 C 66.573,128.027 65.9063,129.027 64.5,129.5C 64.427,127.973 65.0937,126.973 66.5,126.5 Z"/></g>
<g><path style="opacity:0.441" fill="#fefffe" d="M 64.5,129.5 C 64.573,131.027 63.9063,132.027 62.5,132.5C 62.427,130.973 63.0937,129.973 64.5,129.5 Z"/></g>
<g><path style="opacity:0.361" fill="#f0f0f0" d="M 473.5,129.5 C 474.906,129.973 475.573,130.973 475.5,132.5C 474.094,132.027 473.427,131.027 473.5,129.5 Z"/></g>
<g><path style="opacity:0.404" fill="#fefffe" d="M 62.5,132.5 C 62.573,134.027 61.9063,135.027 60.5,135.5C 60.427,133.973 61.0937,132.973 62.5,132.5 Z"/></g>
<g><path style="opacity:0.451" fill="#fefffe" d="M 475.5,132.5 C 476.906,132.973 477.573,133.973 477.5,135.5C 476.094,135.027 475.427,134.027 475.5,132.5 Z"/></g>
<g><path style="opacity:0.406" fill="#fefffe" d="M 59.5,137.5 C 59.573,139.027 58.9063,140.027 57.5,140.5C 57.427,138.973 58.0937,137.973 59.5,137.5 Z"/></g>
<g><path style="opacity:0.457" fill="#fefffe" d="M 478.5,137.5 C 479.906,137.973 480.573,138.973 480.5,140.5C 479.094,140.027 478.427,139.027 478.5,137.5 Z"/></g>
<g><path style="opacity:0.376" fill="#f6f6f6" d="M 481.5,142.5 C 483.25,143.659 484.25,145.326 484.5,147.5C 482.75,146.341 481.75,144.674 481.5,142.5 Z"/></g>
<g><path style="opacity:0.431" fill="#f9f9f9" d="M 55.5,144.5 C 54.9213,147.331 53.588,149.664 51.5,151.5C 52.0787,148.669 53.412,146.336 55.5,144.5 Z"/></g>
<g><path style="opacity:0.644" fill="#fefffe" d="M 109.5,148.5 C 121.833,148.5 134.167,148.5 146.5,148.5C 146.5,215.5 146.5,282.5 146.5,349.5C 134.167,349.5 121.833,349.5 109.5,349.5C 109.5,282.5 109.5,215.5 109.5,148.5 Z"/></g>
<g><path style="opacity:1" fill="#080504" d="M 110.5,149.5 C 122.167,149.5 133.833,149.5 145.5,149.5C 145.5,215.833 145.5,282.167 145.5,348.5C 133.833,348.5 122.167,348.5 110.5,348.5C 110.5,282.167 110.5,215.833 110.5,149.5 Z"/></g>
<g><path style="opacity:1" fill="#090505" d="M 267.5,149.5 C 284.17,149.333 300.837,149.5 317.5,150C 283.714,183.122 250.047,216.122 216.5,249C 241.462,274.295 266.795,299.295 292.5,324C 332.656,315.8 372.656,306.634 412.5,296.5C 391.183,273.349 369.683,250.349 348,227.5C 331.983,242.351 315.816,257.018 299.5,271.5C 292.492,264.492 285.826,257.158 279.5,249.5C 302.534,227.798 325.867,206.465 349.5,185.5C 384.794,222.296 419.96,259.296 455,296.5C 460.415,308.503 456.915,316.67 444.5,321C 389.685,333.912 334.851,346.745 280,359.5C 279.167,359.333 278.333,359.167 277.5,359C 247.528,328.028 217.195,297.361 186.5,267C 178.173,266.5 169.84,266.334 161.5,266.5C 161.5,254.833 161.5,243.167 161.5,231.5C 169.84,231.666 178.173,231.5 186.5,231C 213.702,203.965 240.702,176.799 267.5,149.5 Z"/></g>
<g><path style="opacity:0.404" fill="#fdfdfd" d="M 49.5,155.5 C 49.2927,158.241 48.2927,160.574 46.5,162.5C 46.7073,159.759 47.7073,157.426 49.5,155.5 Z"/></g>
<g><path style="opacity:0.401" fill="#fefefe" d="M 489.5,157.5 C 491.293,159.426 492.293,161.759 492.5,164.5C 490.707,162.574 489.707,160.241 489.5,157.5 Z"/></g>
<g><path style="opacity:0.425" fill="#fefffe" d="M 493.5,166.5 C 494.931,167.78 495.598,169.447 495.5,171.5C 494.069,170.22 493.402,168.553 493.5,166.5 Z"/></g>
<g><path style="opacity:0.4" fill="#fefffe" d="M 495.5,171.5 C 496.931,172.78 497.598,174.447 497.5,176.5C 496.069,175.22 495.402,173.553 495.5,171.5 Z"/></g>
<g><path style="opacity:0.299" fill="#f1f1f1" d="M 38.5,338.5 C 39.9313,339.78 40.5979,341.447 40.5,343.5C 39.0687,342.22 38.4021,340.553 38.5,338.5 Z"/></g>
<g><path style="opacity:0.393" fill="#fefffe" d="M 498.5,341.5 C 498.598,343.553 497.931,345.22 496.5,346.5C 496.402,344.447 497.069,342.78 498.5,341.5 Z"/></g>
<g><path style="opacity:0.414" fill="#fefffe" d="M 496.5,346.5 C 496.598,348.553 495.931,350.22 494.5,351.5C 494.402,349.447 495.069,347.78 496.5,346.5 Z"/></g>
<g><path style="opacity:0.413" fill="#fdfdfd" d="M 44.5,353.5 C 45.9313,354.78 46.5979,356.447 46.5,358.5C 45.0687,357.22 44.4021,355.553 44.5,353.5 Z"/></g>
<g><path style="opacity:0.48" fill="#fefffe" d="M 489.5,362.5 C 489.771,364.38 489.104,365.713 487.5,366.5C 487.66,364.847 488.326,363.514 489.5,362.5 Z"/></g>
<g><path style="opacity:0.405" fill="#fefffe" d="M 55.5,376.5 C 56.9063,376.973 57.573,377.973 57.5,379.5C 56.0937,379.027 55.427,378.027 55.5,376.5 Z"/></g>
<g><path style="opacity:0.455" fill="#fefffe" d="M 482.5,376.5 C 482.573,378.027 481.906,379.027 480.5,379.5C 480.427,377.973 481.094,376.973 482.5,376.5 Z"/></g>
<g><path style="opacity:0.366" fill="#f5f5f5" d="M 58.5,381.5 C 60.2503,382.659 61.2503,384.326 61.5,386.5C 59.7497,385.341 58.7497,383.674 58.5,381.5 Z"/></g>
<g><path style="opacity:0.414" fill="#fefffe" d="M 478.5,383.5 C 478.573,385.027 477.906,386.027 476.5,386.5C 476.427,384.973 477.094,383.973 478.5,383.5 Z"/></g>
<g><path style="opacity:0.429" fill="#fefffe" d="M 61.5,386.5 C 62.9063,386.973 63.573,387.973 63.5,389.5C 62.0937,389.027 61.427,388.027 61.5,386.5 Z"/></g>
<g><path style="opacity:0.357" fill="#ececec" d="M 476.5,386.5 C 476.573,388.027 475.906,389.027 474.5,389.5C 474.427,387.973 475.094,386.973 476.5,386.5 Z"/></g>
<g><path style="opacity:0.47" fill="#fefffe" d="M 63.5,389.5 C 64.9063,389.973 65.573,390.973 65.5,392.5C 64.0937,392.027 63.427,391.027 63.5,389.5 Z"/></g>
<g><path style="opacity:0.369" fill="#f1f1f1" d="M 65.5,392.5 C 66.9063,392.973 67.573,393.973 67.5,395.5C 66.0937,395.027 65.427,394.027 65.5,392.5 Z"/></g>
<g><path style="opacity:0.425" fill="#fefffe" d="M 67.5,395.5 C 68.9063,395.973 69.573,396.973 69.5,398.5C 68.0937,398.027 67.427,397.027 67.5,395.5 Z"/></g>
<g><path style="opacity:0.48" fill="#fefffe" d="M 470.5,395.5 C 470.573,397.027 469.906,398.027 468.5,398.5C 468.427,396.973 469.094,395.973 470.5,395.5 Z"/></g>
<g><path style="opacity:0.327" fill="#ededed" d="M 69.5,398.5 C 71.2624,399.262 72.2624,400.596 72.5,402.5C 70.7376,401.738 69.7376,400.404 69.5,398.5 Z"/></g>
<g><path style="opacity:0.373" fill="#fefffe" d="M 468.5,398.5 C 468.573,400.027 467.906,401.027 466.5,401.5C 466.427,399.973 467.094,398.973 468.5,398.5 Z"/></g>
<g><path style="opacity:0.406" fill="#fefffe" d="M 72.5,402.5 C 73.9063,402.973 74.573,403.973 74.5,405.5C 73.0937,405.027 72.427,404.027 72.5,402.5 Z"/></g>
<g><path style="opacity:0.451" fill="#fefffe" d="M 465.5,402.5 C 465.573,404.027 464.906,405.027 463.5,405.5C 463.427,403.973 464.094,402.973 465.5,402.5 Z"/></g>
<g><path style="opacity:0.381" fill="#fefffe" d="M 75.5,406.5 C 77.2624,407.262 78.2624,408.596 78.5,410.5C 76.7376,409.738 75.7376,408.404 75.5,406.5 Z"/></g>
<g><path style="opacity:0.429" fill="#fefffe" d="M 462.5,406.5 C 462.262,408.404 461.262,409.738 459.5,410.5C 459.738,408.596 460.738,407.262 462.5,406.5 Z"/></g>
<g><path style="opacity:0.455" fill="#fefffe" d="M 80.5,412.5 C 82.2624,413.262 83.2624,414.596 83.5,416.5C 81.7376,415.738 80.7376,414.404 80.5,412.5 Z"/></g>
<g><path style="opacity:0.466" fill="#fefffe" d="M 457.5,412.5 C 457.573,414.027 456.906,415.027 455.5,415.5C 455.427,413.973 456.094,412.973 457.5,412.5 Z"/></g>
<g><path style="opacity:0.436" fill="#fafafa" d="M 452.5,418.5 C 450.234,422.436 447.234,425.769 443.5,428.5C 445.766,424.564 448.766,421.231 452.5,418.5 Z"/></g>
<g><path style="opacity:0.447" fill="#fafafa" d="M 86.5,419.5 C 93.1667,425.5 99.5,431.833 105.5,438.5C 98.1667,433.167 91.8333,426.833 86.5,419.5 Z"/></g>
<g><path style="opacity:0.431" fill="#fcfcfc" d="M 440.5,431.5 C 438.1,434.903 435.1,437.57 431.5,439.5C 433.9,436.097 436.9,433.43 440.5,431.5 Z"/></g>
<g><path style="opacity:0.401" fill="#fefffe" d="M 108.5,441.5 C 110.749,442.08 112.415,443.413 113.5,445.5C 111.251,444.92 109.585,443.587 108.5,441.5 Z"/></g>
<g><path style="opacity:0.403" fill="#fcfcfc" d="M 429.5,441.5 C 428.415,443.587 426.749,444.92 424.5,445.5C 425.585,443.413 427.251,442.08 429.5,441.5 Z"/></g>
<g><path style="opacity:0.356" fill="#fafafa" d="M 114.5,446.5 C 116.404,446.738 117.738,447.738 118.5,449.5C 116.596,449.262 115.262,448.262 114.5,446.5 Z"/></g>
<g><path style="opacity:0.394" fill="#fefffe" d="M 422.5,447.5 C 422.027,448.906 421.027,449.573 419.5,449.5C 419.973,448.094 420.973,447.427 422.5,447.5 Z"/></g>
<g><path style="opacity:0.413" fill="#fefffe" d="M 119.5,450.5 C 121.027,450.427 122.027,451.094 122.5,452.5C 120.973,452.573 119.973,451.906 119.5,450.5 Z"/></g>
<g><path style="opacity:0.453" fill="#fefffe" d="M 418.5,450.5 C 418.027,451.906 417.027,452.573 415.5,452.5C 415.973,451.094 416.973,450.427 418.5,450.5 Z"/></g>
<g><path style="opacity:0.4" fill="#fefffe" d="M 123.5,453.5 C 125.027,453.427 126.027,454.094 126.5,455.5C 124.973,455.573 123.973,454.906 123.5,453.5 Z"/></g>
<g><path style="opacity:0.437" fill="#fefffe" d="M 414.5,453.5 C 414.027,454.906 413.027,455.573 411.5,455.5C 411.973,454.094 412.973,453.427 414.5,453.5 Z"/></g>
<g><path style="opacity:0.473" fill="#fefffe" d="M 126.5,455.5 C 128.027,455.427 129.027,456.094 129.5,457.5C 127.973,457.573 126.973,456.906 126.5,455.5 Z"/></g>
<g><path style="opacity:0.402" fill="#f7f7f7" d="M 411.5,455.5 C 411.027,456.906 410.027,457.573 408.5,457.5C 408.973,456.094 409.973,455.427 411.5,455.5 Z"/></g>
<g><path style="opacity:0.335" fill="#efefef" d="M 133.5,460.5 C 135.674,460.75 137.341,461.75 138.5,463.5C 136.326,463.25 134.659,462.25 133.5,460.5 Z"/></g>
<g><path style="opacity:0.364" fill="#fefffe" d="M 404.5,460.5 C 404.027,461.906 403.027,462.573 401.5,462.5C 401.973,461.094 402.973,460.427 404.5,460.5 Z"/></g>
<g><path style="opacity:0.43" fill="#fefffe" d="M 138.5,463.5 C 140.027,463.427 141.027,464.094 141.5,465.5C 139.973,465.573 138.973,464.906 138.5,463.5 Z"/></g>
<g><path style="opacity:0.466" fill="#fefffe" d="M 399.5,463.5 C 399.027,464.906 398.027,465.573 396.5,465.5C 396.973,464.094 397.973,463.427 399.5,463.5 Z"/></g>
<g><path style="opacity:0.396" fill="#fefffe" d="M 141.5,465.5 C 143.674,465.75 145.341,466.75 146.5,468.5C 144.326,468.25 142.659,467.25 141.5,465.5 Z"/></g>
<g><path style="opacity:0.365" fill="#f9f9f9" d="M 396.5,465.5 C 395.341,467.25 393.674,468.25 391.5,468.5C 392.659,466.75 394.326,465.75 396.5,465.5 Z"/></g>
<g><path style="opacity:0.437" fill="#fafafa" d="M 150.5,470.5 C 156.818,472.992 162.818,475.992 168.5,479.5C 161.914,477.54 155.914,474.54 150.5,470.5 Z"/></g>
<g><path style="opacity:0.253" fill="#f6f6f6" d="M 389.5,469.5 C 385.653,472.593 381.32,474.926 376.5,476.5C 380.347,473.407 384.68,471.074 389.5,469.5 Z"/></g>
<g><path style="opacity:0.42" fill="#fefffe" d="M 374.5,477.5 C 373.22,478.931 371.553,479.598 369.5,479.5C 370.78,478.069 372.447,477.402 374.5,477.5 Z"/></g>
<g><path style="opacity:0.425" fill="#f4f4f4" d="M 367.5,480.5 C 366.22,481.931 364.553,482.598 362.5,482.5C 363.78,481.069 365.447,480.402 367.5,480.5 Z"/></g>
<g><path style="opacity:0.429" fill="#fefffe" d="M 357.5,484.5 C 356.22,485.931 354.553,486.598 352.5,486.5C 353.78,485.069 355.447,484.402 357.5,484.5 Z"/></g>
<g><path style="opacity:0.435" fill="#fefffe" d="M 186.5,486.5 C 188.553,486.402 190.22,487.069 191.5,488.5C 189.447,488.598 187.78,487.931 186.5,486.5 Z"/></g>
</svg>
