<?xml version="1.0" encoding="UTF-8"?>
<!DOCTYPE svg PUBLIC "-//W3C//DTD SVG 1.1//EN" "http://www.w3.org/Graphics/SVG/1.1/DTD/svg11.dtd">
<svg xmlns="http://www.w3.org/2000/svg" version="1.1" width="535px" height="524px" style="shape-rendering:geometricPrecision; text-rendering:geometricPrecision; image-rendering:optimizeQuality; fill-rule:evenodd; clip-rule:evenodd" xmlns:xlink="http://www.w3.org/1999/xlink">
<g><path style="opacity:0.955" fill="#fefffe" d="M 248.5,19.5 C 351.376,15.3417 429.543,56.675 483,143.5C 520.945,216.554 522.945,290.554 489,365.5C 447.687,443.274 383.187,488.107 295.5,500C 202.249,506.941 127.082,473.775 70,400.5C 20.6639,327.142 11.9973,249.142 44,166.5C 78.0222,92.4833 134.522,45.3166 213.5,25C 225.247,22.7287 236.914,20.8954 248.5,19.5 Z M 268.5,43.5 C 341.872,45.4353 401.038,75.102 446,132.5C 492.283,199.441 500.283,270.774 470,346.5C 436.914,415.569 382.747,457.736 307.5,473C 220.875,484.802 149.708,457.302 94,390.5C 46.6024,323.985 37.6024,252.652 67,176.5C 101.423,102.773 158.923,59.2725 239.5,46C 249.327,45.2365 258.994,44.4032 268.5,43.5 Z"/></g>
<g><path style="opacity:0.977" fill="#fefffe" d="M 109.5,148.5 C 121.833,148.5 134.167,148.5 146.5,148.5C 146.5,215.5 146.5,282.5 146.5,349.5C 134.167,349.5 121.833,349.5 109.5,349.5C 109.5,282.5 109.5,215.5 109.5,148.5 Z"/></g>
<g><path style="opacity:0.966" fill="#fefffe" d="M 267.5,148.5 C 284.846,148.167 302.179,148.5 319.5,149.5C 285.374,182.458 251.374,215.625 217.5,249C 242.833,273.667 268.167,298.333 293.5,323C 332.969,314.904 372.302,305.904 411.5,296C 389.957,273.959 368.624,251.792 347.5,229.5C 331.5,243.833 315.5,258.167 299.5,272.5C 292.217,265.928 285.383,258.928 279,251.5C 278.333,250.5 278.333,249.5 279,248.5C 302.345,227.154 325.678,205.82 349,184.5C 384.66,220.161 419.66,256.494 454,293.5C 462.409,306.849 459.243,316.349 444.5,322C 389.535,334.991 334.535,347.825 279.5,360.5C 278.5,360.333 277.5,360.167 276.5,360C 246.5,329.333 216.5,298.667 186.5,268C 177.84,267.5 169.173,267.334 160.5,267.5C 160.5,255.167 160.5,242.833 160.5,230.5C 169.173,230.666 177.84,230.5 186.5,230C 213.702,202.965 240.702,175.799 267.5,148.5 Z"/></g>
</svg>
