<?xml version="1.0" encoding="UTF-8"?>
<!DOCTYPE svg PUBLIC "-//W3C//DTD SVG 1.1//EN" "http://www.w3.org/Graphics/SVG/1.1/DTD/svg11.dtd">
<svg xmlns="http://www.w3.org/2000/svg" version="1.1" width="535px" height="524px" style="shape-rendering:geometricPrecision; text-rendering:geometricPrecision; image-rendering:optimizeQuality; fill-rule:evenodd; clip-rule:evenodd" xmlns:xlink="http://www.w3.org/1999/xlink">
<g><path style="opacity:1" fill="#323332" d="M 243.5,18.5 C 347.305,12.814 426.805,53.4806 482,140.5C 524.876,223.484 523.209,305.484 477,386.5C 433.994,452.288 373.161,490.121 294.5,500C 201.278,506.957 126.111,473.791 69,400.5C 19.7353,326.784 11.0687,248.451 43,165.5C 83.3661,80.5522 150.199,31.5522 243.5,18.5 Z M 262.5,43.5 C 348.841,44.4819 414.341,81.4819 459,154.5C 491.623,215.74 495.289,278.74 470,343.5C 433.285,420.464 372.452,463.964 287.5,474C 210.487,478.562 146.987,451.729 97,393.5C 48.4248,328.704 37.7581,258.037 65,181.5C 103.428,96.6114 169.262,50.6114 262.5,43.5 Z"/></g>
<g><path style="opacity:1" fill="#323332" d="M 108.5,147.5 C 121.167,147.5 133.833,147.5 146.5,147.5C 146.5,214.833 146.5,282.167 146.5,349.5C 133.833,349.5 121.167,349.5 108.5,349.5C 108.5,282.167 108.5,214.833 108.5,147.5 Z"/></g>
<g><path style="opacity:1" fill="#323332" d="M 266.5,147.5 C 284.194,147.175 301.861,147.675 319.5,149C 285.654,182.013 251.987,215.18 218.5,248.5C 242.987,272.821 267.654,296.987 292.5,321C 331.822,314.088 370.822,305.421 409.5,295C 388.302,273.47 367.468,251.636 347,229.5C 331.298,244.204 315.298,258.537 299,272.5C 291.333,266.167 284.333,259.167 278,251.5C 277.613,247.835 279.113,245.002 282.5,243C 304.351,222.982 326.351,203.148 348.5,183.5C 384.548,219.047 419.715,255.38 454,292.5C 462.562,306.232 459.395,316.065 444.5,322C 389.237,335.149 333.904,347.982 278.5,360.5C 277.5,360.333 276.5,360.167 275.5,360C 245.5,329.333 215.5,298.667 185.5,268C 176.84,267.5 168.173,267.334 159.5,267.5C 159.5,254.833 159.5,242.167 159.5,229.5C 168.173,229.666 176.84,229.5 185.5,229C 212.702,201.965 239.702,174.799 266.5,147.5 Z"/></g>
</svg>
