<?xml version="1.0" encoding="UTF-8"?>
<!DOCTYPE svg PUBLIC "-//W3C//DTD SVG 1.1//EN" "http://www.w3.org/Graphics/SVG/1.1/DTD/svg11.dtd">
<svg xmlns="http://www.w3.org/2000/svg" version="1.1" width="535px" height="524px" style="shape-rendering:geometricPrecision; text-rendering:geometricPrecision; image-rendering:optimizeQuality; fill-rule:evenodd; clip-rule:evenodd" xmlns:xlink="http://www.w3.org/1999/xlink">
<g><path style="opacity:1" fill="#161414" d="M 356.5,35.5 C 357.78,36.9313 359.447,37.5979 361.5,37.5C 362.78,38.9313 364.447,39.5979 366.5,39.5C 368.153,39.6596 369.486,40.3263 370.5,41.5C 371.78,42.9313 373.447,43.5979 375.5,43.5C 377.819,43.9925 379.819,44.9925 381.5,46.5C 383.336,48.588 385.669,49.9213 388.5,50.5C 390.153,50.6596 391.486,51.3263 392.5,52.5C 392.973,53.9063 393.973,54.573 395.5,54.5C 396.492,54.3284 397.158,54.6618 397.5,55.5C 397.973,56.9063 398.973,57.573 400.5,57.5C 400.973,58.9063 401.973,59.573 403.5,59.5C 403.973,60.9063 404.973,61.573 406.5,61.5C 406.973,62.9063 407.973,63.573 409.5,63.5C 409.973,64.9063 410.973,65.573 412.5,65.5C 413.167,65.5 413.5,65.8333 413.5,66.5C 413.973,67.9063 414.973,68.573 416.5,68.5C 417.167,68.5 417.5,68.8333 417.5,69.5C 417.973,70.9063 418.973,71.573 420.5,71.5C 421.167,71.5 421.5,71.8333 421.5,72.5C 422.262,74.2624 423.596,75.2624 425.5,75.5C 426.833,76.1667 427.833,77.1667 428.5,78.5C 429.262,80.2624 430.596,81.2624 432.5,81.5C 434.833,83.1667 436.833,85.1667 438.5,87.5C 439.167,88.8333 440.167,89.8333 441.5,90.5C 442.167,91.8333 443.167,92.8333 444.5,93.5C 447.167,95.5 449.5,97.8333 451.5,100.5C 452.08,102.749 453.413,104.415 455.5,105.5C 456.5,105.833 457.167,106.5 457.5,107.5C 457.738,109.404 458.738,110.738 460.5,111.5C 461.167,111.5 461.5,111.833 461.5,112.5C 461.738,114.404 462.738,115.738 464.5,116.5C 465.167,116.5 465.5,116.833 465.5,117.5C 465.427,119.027 466.094,120.027 467.5,120.5C 467.427,122.027 468.094,123.027 469.5,123.5C 472.241,125.975 474.241,128.975 475.5,132.5C 475.427,134.027 476.094,135.027 477.5,135.5C 478.338,135.842 478.672,136.508 478.5,137.5C 478.427,139.027 479.094,140.027 480.5,140.5C 481.338,140.842 481.672,141.508 481.5,142.5C 481.427,144.027 482.094,145.027 483.5,145.5C 486.008,149.182 488.008,153.182 489.5,157.5C 489.707,160.241 490.707,162.574 492.5,164.5C 493.338,164.842 493.672,165.508 493.5,166.5C 493.402,168.553 494.069,170.22 495.5,171.5C 495.402,173.553 496.069,175.22 497.5,176.5C 518.486,231.375 518.819,286.375 498.5,341.5C 497.069,342.78 496.402,344.447 496.5,346.5C 495.069,347.78 494.402,349.447 494.5,351.5C 493.618,355.593 491.951,359.26 489.5,362.5C 488.326,363.514 487.66,364.847 487.5,366.5C 486.341,370.151 484.674,373.485 482.5,376.5C 481.094,376.973 480.427,377.973 480.5,379.5C 480.34,381.153 479.674,382.486 478.5,383.5C 477.094,383.973 476.427,384.973 476.5,386.5C 475.241,390.025 473.241,393.025 470.5,395.5C 469.094,395.973 468.427,396.973 468.5,398.5C 467.094,398.973 466.427,399.973 466.5,401.5C 466.5,402.167 466.167,402.5 465.5,402.5C 464.094,402.973 463.427,403.973 463.5,405.5C 463.5,406.167 463.167,406.5 462.5,406.5C 460.738,407.262 459.738,408.596 459.5,410.5C 459.167,411.5 458.5,412.167 457.5,412.5C 456.094,412.973 455.427,413.973 455.5,415.5C 454.833,416.833 453.833,417.833 452.5,418.5C 449.097,420.9 446.43,423.9 444.5,427.5C 443.167,429.5 441.5,431.167 439.5,432.5C 436.236,434.094 433.569,436.427 431.5,439.5C 430.833,440.833 429.833,441.833 428.5,442.5C 426.596,442.738 425.262,443.738 424.5,445.5C 424.167,446.5 423.5,447.167 422.5,447.5C 420.973,447.427 419.973,448.094 419.5,449.5C 419.5,450.167 419.167,450.5 418.5,450.5C 416.973,450.427 415.973,451.094 415.5,452.5C 415.5,453.167 415.167,453.5 414.5,453.5C 412.973,453.427 411.973,454.094 411.5,455.5C 409.469,457.522 407.135,459.189 404.5,460.5C 402.973,460.427 401.973,461.094 401.5,462.5C 401.158,463.338 400.492,463.672 399.5,463.5C 397.973,463.427 396.973,464.094 396.5,465.5C 394.973,465.427 393.973,466.094 393.5,467.5C 392.486,468.674 391.153,469.34 389.5,469.5C 386.008,470.41 383.008,472.076 380.5,474.5C 378.819,476.008 376.819,477.008 374.5,477.5C 372.447,477.402 370.78,478.069 369.5,479.5C 365.889,481.931 361.889,483.597 357.5,484.5C 355.447,484.402 353.78,485.069 352.5,486.5C 312.302,501.039 270.968,504.872 228.5,498C 215.769,495.915 203.436,492.748 191.5,488.5C 190.22,487.069 188.553,486.402 186.5,486.5C 180.121,484.933 174.121,482.6 168.5,479.5C 167.22,478.069 165.553,477.402 163.5,477.5C 159.653,474.407 155.32,472.074 150.5,470.5C 148.847,470.34 147.514,469.674 146.5,468.5C 145.341,466.75 143.674,465.75 141.5,465.5C 141.027,464.094 140.027,463.427 138.5,463.5C 137.508,463.672 136.842,463.338 136.5,462.5C 136.027,461.094 135.027,460.427 133.5,460.5C 131.77,459.974 130.436,458.974 129.5,457.5C 129.027,456.094 128.027,455.427 126.5,455.5C 126.027,454.094 125.027,453.427 123.5,453.5C 122.833,453.5 122.5,453.167 122.5,452.5C 122.027,451.094 121.027,450.427 119.5,450.5C 118.833,450.5 118.5,450.167 118.5,449.5C 117.738,447.738 116.404,446.738 114.5,446.5C 113.833,446.5 113.5,446.167 113.5,445.5C 112.415,443.413 110.749,442.08 108.5,441.5C 107.167,440.833 106.167,439.833 105.5,438.5C 103.1,435.097 100.1,432.43 96.5,430.5C 93.8991,426.229 90.5658,422.563 86.5,419.5C 85.1667,418.833 84.1667,417.833 83.5,416.5C 83.2624,414.596 82.2624,413.262 80.5,412.5C 79.5,412.167 78.8333,411.5 78.5,410.5C 78.2624,408.596 77.2624,407.262 75.5,406.5C 74.8333,406.5 74.5,406.167 74.5,405.5C 74.573,403.973 73.9063,402.973 72.5,402.5C 71.8333,402.5 71.5,402.167 71.5,401.5C 71.573,399.973 70.9063,398.973 69.5,398.5C 69.573,396.973 68.9063,395.973 67.5,395.5C 66.0937,395.027 65.427,394.027 65.5,392.5C 65.573,390.973 64.9063,389.973 63.5,389.5C 63.573,387.973 62.9063,386.973 61.5,386.5C 61.573,384.973 60.9063,383.973 59.5,383.5C 58.3263,382.486 57.6596,381.153 57.5,379.5C 57.573,377.973 56.9063,376.973 55.5,376.5C 51.9922,370.818 48.9922,364.818 46.5,358.5C 46.5979,356.447 45.9313,354.78 44.5,353.5C 28.4384,316.922 22.2717,278.588 26,238.5C 28.178,211.778 35.0114,186.445 46.5,162.5C 48.2927,160.574 49.2927,158.241 49.5,155.5C 49.9925,153.181 50.9925,151.181 52.5,149.5C 54.2503,148.341 55.2503,146.674 55.5,144.5C 55.6596,142.847 56.3263,141.514 57.5,140.5C 58.9063,140.027 59.573,139.027 59.5,137.5C 59.3284,136.508 59.6618,135.842 60.5,135.5C 61.9063,135.027 62.573,134.027 62.5,132.5C 63.9063,132.027 64.573,131.027 64.5,129.5C 65.9063,129.027 66.573,128.027 66.5,126.5C 66.427,124.973 67.0937,123.973 68.5,123.5C 69.9063,123.027 70.573,122.027 70.5,120.5C 70.5,119.833 70.8333,119.5 71.5,119.5C 72.9063,119.027 73.573,118.027 73.5,116.5C 73.5,115.833 73.8333,115.5 74.5,115.5C 75.9063,115.027 76.573,114.027 76.5,112.5C 76.5,111.833 76.8333,111.5 77.5,111.5C 79.2624,110.738 80.2624,109.404 80.5,107.5C 80.8333,106.5 81.5,105.833 82.5,105.5C 84.5869,104.415 85.9202,102.749 86.5,100.5C 89.5,96.8333 92.8333,93.5 96.5,90.5C 97.5,90.1667 98.1667,89.5 98.5,88.5C 100.167,86.1667 102.167,84.1667 104.5,82.5C 106.749,81.9202 108.415,80.5869 109.5,78.5C 109.833,77.5 110.5,76.8333 111.5,76.5C 113.404,76.2624 114.738,75.2624 115.5,73.5C 115.5,72.8333 115.833,72.5 116.5,72.5C 118.404,72.2624 119.738,71.2624 120.5,69.5C 120.5,68.8333 120.833,68.5 121.5,68.5C 123.027,68.573 124.027,67.9063 124.5,66.5C 125.436,65.0256 126.77,64.0256 128.5,63.5C 130.027,63.573 131.027,62.9063 131.5,61.5C 133.027,61.573 134.027,60.9063 134.5,59.5C 136.027,59.573 137.027,58.9063 137.5,57.5C 138.899,56.1103 140.566,55.1103 142.5,54.5C 144.674,54.2503 146.341,53.2503 147.5,51.5C 148.514,50.3263 149.847,49.6596 151.5,49.5C 153.819,49.0075 155.819,48.0075 157.5,46.5C 159.674,46.2503 161.341,45.2503 162.5,43.5C 164.553,43.5979 166.22,42.9313 167.5,41.5C 168.514,40.3263 169.847,39.6596 171.5,39.5C 173.553,39.5979 175.22,38.9313 176.5,37.5C 180.534,35.2628 184.868,33.5961 189.5,32.5C 191.786,32.405 193.786,31.7384 195.5,30.5C 225.982,20.8014 257.316,17.3014 289.5,20C 312.794,21.5757 335.127,26.7423 356.5,35.5 Z M 335.5,53.5 C 337.792,55.2671 340.458,56.2671 343.5,56.5C 344.209,57.404 345.209,57.7373 346.5,57.5C 347.78,58.9313 349.447,59.5979 351.5,59.5C 353.649,60.7362 355.982,61.7362 358.5,62.5C 359.78,63.9313 361.447,64.5979 363.5,64.5C 366.515,66.6744 369.849,68.3411 373.5,69.5C 374.659,71.2503 376.326,72.2503 378.5,72.5C 380.663,74.0828 382.996,75.4161 385.5,76.5C 385.973,77.9063 386.973,78.573 388.5,78.5C 388.973,79.9063 389.973,80.573 391.5,80.5C 391.973,81.9063 392.973,82.573 394.5,82.5C 394.973,83.9063 395.973,84.573 397.5,84.5C 397.973,85.9063 398.973,86.573 400.5,86.5C 400.5,87.1667 400.833,87.5 401.5,87.5C 401.973,88.9063 402.973,89.573 404.5,89.5C 404.833,90.5 405.5,91.1667 406.5,91.5C 407.262,93.2624 408.596,94.2624 410.5,94.5C 410.833,95.5 411.5,96.1667 412.5,96.5C 413.585,98.5869 415.251,99.9202 417.5,100.5C 422.167,105.833 427.167,110.833 432.5,115.5C 433.08,117.749 434.413,119.415 436.5,120.5C 437.167,121.833 438.167,122.833 439.5,123.5C 439.427,125.027 440.094,126.027 441.5,126.5C 441.5,127.167 441.833,127.5 442.5,127.5C 442.738,129.404 443.738,130.738 445.5,131.5C 445.5,132.167 445.833,132.5 446.5,132.5C 446.427,134.027 447.094,135.027 448.5,135.5C 448.427,137.027 449.094,138.027 450.5,138.5C 451.475,140.795 452.808,142.795 454.5,144.5C 454.427,146.027 455.094,147.027 456.5,147.5C 456.75,149.674 457.75,151.341 459.5,152.5C 459.328,153.492 459.662,154.158 460.5,154.5C 460.427,156.027 461.094,157.027 462.5,157.5C 463.992,161.818 465.992,165.818 468.5,169.5C 468.402,171.553 469.069,173.22 470.5,174.5C 490.733,223.895 493.4,274.228 478.5,325.5C 477.069,326.78 476.402,328.447 476.5,330.5C 472.088,342 467.088,353.333 461.5,364.5C 460.094,364.973 459.427,365.973 459.5,367.5C 458.326,368.514 457.66,369.847 457.5,371.5C 456.094,371.973 455.427,372.973 455.5,374.5C 454.094,374.973 453.427,375.973 453.5,377.5C 452.094,377.973 451.427,378.973 451.5,380.5C 450.094,380.973 449.427,381.973 449.5,383.5C 448.094,383.973 447.427,384.973 447.5,386.5C 446.833,386.5 446.5,386.833 446.5,387.5C 445.094,387.973 444.427,388.973 444.5,390.5C 443.833,390.5 443.5,390.833 443.5,391.5C 441.738,392.262 440.738,393.596 440.5,395.5C 439.833,395.5 439.5,395.833 439.5,396.5C 437.413,397.585 436.08,399.251 435.5,401.5C 434.167,402.167 433.167,403.167 432.5,404.5C 428.167,408.167 424.167,412.167 420.5,416.5C 418.5,417.833 416.833,419.5 415.5,421.5C 413.596,421.738 412.262,422.738 411.5,424.5C 410.167,425.167 409.167,426.167 408.5,427.5C 406.973,427.427 405.973,428.094 405.5,429.5C 404.833,429.5 404.5,429.833 404.5,430.5C 402.596,430.738 401.262,431.738 400.5,433.5C 398.973,433.427 397.973,434.094 397.5,435.5C 396.833,435.5 396.5,435.833 396.5,436.5C 394.973,436.427 393.973,437.094 393.5,438.5C 391.973,438.427 390.973,439.094 390.5,440.5C 388.973,440.427 387.973,441.094 387.5,442.5C 386.508,442.328 385.842,442.662 385.5,443.5C 383.973,443.427 382.973,444.094 382.5,445.5C 381.508,445.328 380.842,445.662 380.5,446.5C 378.973,446.427 377.973,447.094 377.5,448.5C 371.182,450.992 365.182,453.992 359.5,457.5C 357.447,457.402 355.78,458.069 354.5,459.5C 302.44,480.086 249.773,481.752 196.5,464.5C 195.22,463.069 193.553,462.402 191.5,462.5C 189.064,461.129 186.397,460.129 183.5,459.5C 182.22,458.069 180.553,457.402 178.5,457.5C 172.818,453.992 166.818,450.992 160.5,448.5C 160.027,447.094 159.027,446.427 157.5,446.5C 157.158,445.662 156.492,445.328 155.5,445.5C 155.027,444.094 154.027,443.427 152.5,443.5C 151.101,442.11 149.434,441.11 147.5,440.5C 147.027,439.094 146.027,438.427 144.5,438.5C 143.564,437.026 142.23,436.026 140.5,435.5C 140.027,434.094 139.027,433.427 137.5,433.5C 137.5,432.833 137.167,432.5 136.5,432.5C 136.027,431.094 135.027,430.427 133.5,430.5C 133.5,429.833 133.167,429.5 132.5,429.5C 132.027,428.094 131.027,427.427 129.5,427.5C 128.833,426.167 127.833,425.167 126.5,424.5C 125.738,422.738 124.404,421.738 122.5,421.5C 120.5,418.833 118.167,416.5 115.5,414.5C 113.5,411.833 111.167,409.5 108.5,407.5C 107.167,405.5 105.5,403.833 103.5,402.5C 102.92,400.251 101.587,398.585 99.5,397.5C 99.1667,396.5 98.5,395.833 97.5,395.5C 97.573,393.973 96.9063,392.973 95.5,392.5C 95.1667,391.5 94.5,390.833 93.5,390.5C 93.573,388.973 92.9063,387.973 91.5,387.5C 91.573,385.973 90.9063,384.973 89.5,384.5C 89.5,383.833 89.1667,383.5 88.5,383.5C 88.573,381.973 87.9063,380.973 86.5,380.5C 86.573,378.973 85.9063,377.973 84.5,377.5C 84.573,375.973 83.9063,374.973 82.5,374.5C 82.6716,373.508 82.3382,372.842 81.5,372.5C 81.573,370.973 80.9063,369.973 79.5,369.5C 79.6716,368.508 79.3382,367.842 78.5,367.5C 78.573,365.973 77.9063,364.973 76.5,364.5C 74.3412,358.849 71.6745,353.516 68.5,348.5C 68.5979,346.447 67.9313,344.78 66.5,343.5C 43.9359,286.357 44.6026,229.357 68.5,172.5C 69.9313,171.22 70.5979,169.553 70.5,167.5C 72.0075,165.819 73.0075,163.819 73.5,161.5C 75.2503,160.341 76.2503,158.674 76.5,156.5C 77.6737,155.486 78.3404,154.153 78.5,152.5C 79.9063,152.027 80.573,151.027 80.5,149.5C 81.3382,149.158 81.6716,148.492 81.5,147.5C 82.9063,147.027 83.573,146.027 83.5,144.5C 84.9063,144.027 85.573,143.027 85.5,141.5C 86.4013,140.71 87.0679,139.71 87.5,138.5C 88.9063,138.027 89.573,137.027 89.5,135.5C 90.1667,135.5 90.5,135.167 90.5,134.5C 91.9063,134.027 92.573,133.027 92.5,131.5C 94.2624,130.738 95.2624,129.404 95.5,127.5C 96.1667,127.5 96.5,127.167 96.5,126.5C 98.2624,125.738 99.2624,124.404 99.5,122.5C 100.5,122.167 101.167,121.5 101.5,120.5C 103.914,119.089 105.581,117.089 106.5,114.5C 111.167,110.5 115.5,106.167 119.5,101.5C 122.089,100.581 124.089,98.914 125.5,96.5C 126.5,96.1667 127.167,95.5 127.5,94.5C 129.404,94.2624 130.738,93.2624 131.5,91.5C 132.5,91.1667 133.167,90.5 133.5,89.5C 135.027,89.573 136.027,88.9063 136.5,87.5C 138.23,86.9744 139.564,85.9744 140.5,84.5C 142.027,84.573 143.027,83.9063 143.5,82.5C 145.027,82.573 146.027,81.9063 146.5,80.5C 148.027,80.573 149.027,79.9063 149.5,78.5C 151.027,78.573 152.027,77.9063 152.5,76.5C 153.492,76.6716 154.158,76.3382 154.5,75.5C 156.027,75.573 157.027,74.9063 157.5,73.5C 159.153,73.3404 160.486,72.6737 161.5,71.5C 163.027,71.573 164.027,70.9063 164.5,69.5C 168.151,68.3411 171.485,66.6744 174.5,64.5C 176.553,64.5979 178.22,63.9313 179.5,62.5C 182.989,61.342 186.322,60.0086 189.5,58.5C 191.553,58.5979 193.22,57.9313 194.5,56.5C 241.271,41.1028 288.271,40.1028 335.5,53.5 Z"/></g>
<g><path style="opacity:0.432" fill="#fefffe" d="M 195.5,30.5 C 193.786,31.7384 191.786,32.405 189.5,32.5C 191.102,30.9261 193.102,30.2594 195.5,30.5 Z"/></g>
<g><path style="opacity:0.402" fill="#fefffe" d="M 356.5,35.5 C 358.553,35.4021 360.22,36.0687 361.5,37.5C 359.447,37.5979 357.78,36.9313 356.5,35.5 Z"/></g>
<g><path style="opacity:0.38" fill="#fefffe" d="M 176.5,37.5 C 175.22,38.9313 173.553,39.5979 171.5,39.5C 172.78,38.0687 174.447,37.4021 176.5,37.5 Z"/></g>
<g><path style="opacity:0.405" fill="#fefffe" d="M 361.5,37.5 C 363.553,37.4021 365.22,38.0687 366.5,39.5C 364.447,39.5979 362.78,38.9313 361.5,37.5 Z"/></g>
<g><path style="opacity:0.399" fill="#fefffe" d="M 167.5,41.5 C 166.22,42.9313 164.553,43.5979 162.5,43.5C 163.78,42.0687 165.447,41.4021 167.5,41.5 Z"/></g>
<g><path style="opacity:0.423" fill="#fefffe" d="M 370.5,41.5 C 372.553,41.4021 374.22,42.0687 375.5,43.5C 373.447,43.5979 371.78,42.9313 370.5,41.5 Z"/></g>
<g><path style="opacity:0.247" fill="#eff0f1" d="M 162.5,43.5 C 161.341,45.2503 159.674,46.2503 157.5,46.5C 158.659,44.7497 160.326,43.7497 162.5,43.5 Z"/></g>
<g><path style="opacity:0.489" fill="#fefffe" d="M 157.5,46.5 C 155.819,48.0075 153.819,49.0075 151.5,49.5C 152.911,47.461 154.911,46.461 157.5,46.5 Z"/></g>
<g><path style="opacity:0.406" fill="#f7f7f7" d="M 381.5,46.5 C 384.331,47.0787 386.664,48.412 388.5,50.5C 385.669,49.9213 383.336,48.588 381.5,46.5 Z"/></g>
<g><path style="opacity:0.416" fill="#fefffe" d="M 147.5,51.5 C 146.341,53.2503 144.674,54.2503 142.5,54.5C 143.659,52.7497 145.326,51.7497 147.5,51.5 Z"/></g>
<g><path style="opacity:0.394" fill="#fefffe" d="M 392.5,52.5 C 394.027,52.427 395.027,53.0937 395.5,54.5C 393.973,54.573 392.973,53.9063 392.5,52.5 Z"/></g>
<g><path style="opacity:0.416" fill="#fbfbfc" d="M 335.5,53.5 C 338.542,53.7329 341.208,54.7329 343.5,56.5C 340.458,56.2671 337.792,55.2671 335.5,53.5 Z"/></g>
<g><path style="opacity:0.35" fill="#fefffe" d="M 397.5,55.5 C 399.027,55.427 400.027,56.0937 400.5,57.5C 398.973,57.573 397.973,56.9063 397.5,55.5 Z"/></g>
<g><path style="opacity:0.41" fill="#fefffe" d="M 194.5,56.5 C 193.22,57.9313 191.553,58.5979 189.5,58.5C 190.78,57.0687 192.447,56.4021 194.5,56.5 Z"/></g>
<g><path style="opacity:0.386" fill="#fefffe" d="M 137.5,57.5 C 137.027,58.9063 136.027,59.573 134.5,59.5C 134.973,58.0937 135.973,57.427 137.5,57.5 Z"/></g>
<g><path style="opacity:0.392" fill="#fefffe" d="M 346.5,57.5 C 348.553,57.4021 350.22,58.0687 351.5,59.5C 349.447,59.5979 347.78,58.9313 346.5,57.5 Z"/></g>
<g><path style="opacity:0.419" fill="#fefffe" d="M 400.5,57.5 C 402.027,57.427 403.027,58.0937 403.5,59.5C 401.973,59.573 400.973,58.9063 400.5,57.5 Z"/></g>
<g><path style="opacity:0.438" fill="#fefffe" d="M 134.5,59.5 C 134.027,60.9063 133.027,61.573 131.5,61.5C 131.973,60.0937 132.973,59.427 134.5,59.5 Z"/></g>
<g><path style="opacity:0.345" fill="#f8f8f9" d="M 403.5,59.5 C 405.027,59.427 406.027,60.0937 406.5,61.5C 404.973,61.573 403.973,60.9063 403.5,59.5 Z"/></g>
<g><path style="opacity:0.382" fill="#fefffe" d="M 131.5,61.5 C 131.027,62.9063 130.027,63.573 128.5,63.5C 128.973,62.0937 129.973,61.427 131.5,61.5 Z"/></g>
<g><path style="opacity:0.417" fill="#fefffe" d="M 406.5,61.5 C 408.027,61.427 409.027,62.0937 409.5,63.5C 407.973,63.573 406.973,62.9063 406.5,61.5 Z"/></g>
<g><path style="opacity:0.426" fill="#fefffe" d="M 179.5,62.5 C 178.22,63.9313 176.553,64.5979 174.5,64.5C 175.78,63.0687 177.447,62.4021 179.5,62.5 Z"/></g>
<g><path style="opacity:0.397" fill="#fefffe" d="M 358.5,62.5 C 360.553,62.4021 362.22,63.0687 363.5,64.5C 361.447,64.5979 359.78,63.9313 358.5,62.5 Z"/></g>
<g><path style="opacity:0.352" fill="#fefffe" d="M 409.5,63.5 C 411.027,63.427 412.027,64.0937 412.5,65.5C 410.973,65.573 409.973,64.9063 409.5,63.5 Z"/></g>
<g><path style="opacity:0.425" fill="#fefffe" d="M 124.5,66.5 C 124.027,67.9063 123.027,68.573 121.5,68.5C 121.973,67.0937 122.973,66.427 124.5,66.5 Z"/></g>
<g><path style="opacity:0.462" fill="#fefffe" d="M 413.5,66.5 C 415.027,66.427 416.027,67.0937 416.5,68.5C 414.973,68.573 413.973,67.9063 413.5,66.5 Z"/></g>
<g><path style="opacity:0.368" fill="#e8e8e9" d="M 120.5,69.5 C 119.738,71.2624 118.404,72.2624 116.5,72.5C 117.262,70.7376 118.596,69.7376 120.5,69.5 Z"/></g>
<g><path style="opacity:0.396" fill="#fefffe" d="M 164.5,69.5 C 164.027,70.9063 163.027,71.573 161.5,71.5C 161.973,70.0937 162.973,69.427 164.5,69.5 Z"/></g>
<g><path style="opacity:0.413" fill="#fefffe" d="M 373.5,69.5 C 375.674,69.7497 377.341,70.7497 378.5,72.5C 376.326,72.2503 374.659,71.2503 373.5,69.5 Z"/></g>
<g><path style="opacity:0.404" fill="#fefffe" d="M 417.5,69.5 C 419.027,69.427 420.027,70.0937 420.5,71.5C 418.973,71.573 417.973,70.9063 417.5,69.5 Z"/></g>
<g><path style="opacity:0.387" fill="#fefffe" d="M 421.5,72.5 C 423.404,72.7376 424.738,73.7376 425.5,75.5C 423.596,75.2624 422.262,74.2624 421.5,72.5 Z"/></g>
<g><path style="opacity:0.465" fill="#fefffe" d="M 115.5,73.5 C 114.738,75.2624 113.404,76.2624 111.5,76.5C 112.262,74.7376 113.596,73.7376 115.5,73.5 Z"/></g>
<g><path style="opacity:0.366" fill="#fefffe" d="M 157.5,73.5 C 157.027,74.9063 156.027,75.573 154.5,75.5C 154.973,74.0937 155.973,73.427 157.5,73.5 Z"/></g>
<g><path style="opacity:0.448" fill="#fefffe" d="M 152.5,76.5 C 152.027,77.9063 151.027,78.573 149.5,78.5C 149.973,77.0937 150.973,76.427 152.5,76.5 Z"/></g>
<g><path style="opacity:0.416" fill="#fefffe" d="M 385.5,76.5 C 387.027,76.427 388.027,77.0937 388.5,78.5C 386.973,78.573 385.973,77.9063 385.5,76.5 Z"/></g>
<g><path style="opacity:0.426" fill="#fefffe" d="M 109.5,78.5 C 108.415,80.5869 106.749,81.9202 104.5,82.5C 105.585,80.4131 107.251,79.0798 109.5,78.5 Z"/></g>
<g><path style="opacity:0.37" fill="#fefffe" d="M 149.5,78.5 C 149.027,79.9063 148.027,80.573 146.5,80.5C 146.973,79.0937 147.973,78.427 149.5,78.5 Z"/></g>
<g><path style="opacity:0.336" fill="#fefffe" d="M 388.5,78.5 C 390.027,78.427 391.027,79.0937 391.5,80.5C 389.973,80.573 388.973,79.9063 388.5,78.5 Z"/></g>
<g><path style="opacity:0.428" fill="#fefffe" d="M 428.5,78.5 C 430.404,78.7376 431.738,79.7376 432.5,81.5C 430.596,81.2624 429.262,80.2624 428.5,78.5 Z"/></g>
<g><path style="opacity:0.359" fill="#fefffe" d="M 146.5,80.5 C 146.027,81.9063 145.027,82.573 143.5,82.5C 143.973,81.0937 144.973,80.427 146.5,80.5 Z"/></g>
<g><path style="opacity:0.324" fill="#fefffe" d="M 391.5,80.5 C 393.027,80.427 394.027,81.0937 394.5,82.5C 392.973,82.573 391.973,81.9063 391.5,80.5 Z"/></g>
<g><path style="opacity:0.431" fill="#fefffe" d="M 143.5,82.5 C 143.027,83.9063 142.027,84.573 140.5,84.5C 140.973,83.0937 141.973,82.427 143.5,82.5 Z"/></g>
<g><path style="opacity:0.394" fill="#fefffe" d="M 394.5,82.5 C 396.027,82.427 397.027,83.0937 397.5,84.5C 395.973,84.573 394.973,83.9063 394.5,82.5 Z"/></g>
<g><path style="opacity:0.473" fill="#fefffe" d="M 397.5,84.5 C 399.027,84.427 400.027,85.0937 400.5,86.5C 398.973,86.573 397.973,85.9063 397.5,84.5 Z"/></g>
<g><path style="opacity:0.477" fill="#fefffe" d="M 401.5,87.5 C 403.027,87.427 404.027,88.0937 404.5,89.5C 402.973,89.573 401.973,88.9063 401.5,87.5 Z"/></g>
<g><path style="opacity:0.379" fill="#fefffe" d="M 438.5,87.5 C 440.5,87.5 441.5,88.5 441.5,90.5C 440.167,89.8333 439.167,88.8333 438.5,87.5 Z"/></g>
<g><path style="opacity:0.397" fill="#fefffe" d="M 98.5,88.5 C 98.1667,89.5 97.5,90.1667 96.5,90.5C 96.5,89.1667 97.1667,88.5 98.5,88.5 Z"/></g>
<g><path style="opacity:0.441" fill="#eff0f0" d="M 136.5,87.5 C 136.027,88.9063 135.027,89.573 133.5,89.5C 133.973,88.0937 134.973,87.427 136.5,87.5 Z"/></g>
<g><path style="opacity:0.393" fill="#fefffe" d="M 441.5,90.5 C 443.5,90.5 444.5,91.5 444.5,93.5C 443.167,92.8333 442.167,91.8333 441.5,90.5 Z"/></g>
<g><path style="opacity:0.416" fill="#fefffe" d="M 131.5,91.5 C 130.738,93.2624 129.404,94.2624 127.5,94.5C 128.262,92.7376 129.596,91.7376 131.5,91.5 Z"/></g>
<g><path style="opacity:0.369" fill="#fefffe" d="M 406.5,91.5 C 408.404,91.7376 409.738,92.7376 410.5,94.5C 408.596,94.2624 407.262,93.2624 406.5,91.5 Z"/></g>
<g><path style="opacity:0.399" fill="#fefffe" d="M 412.5,96.5 C 414.749,97.0798 416.415,98.4131 417.5,100.5C 415.251,99.9202 413.585,98.5869 412.5,96.5 Z"/></g>
<g><path style="opacity:0.371" fill="#fdfdfd" d="M 125.5,96.5 C 124.089,98.914 122.089,100.581 119.5,101.5C 120.911,99.086 122.911,97.4194 125.5,96.5 Z"/></g>
<g><path style="opacity:0.388" fill="#fefffe" d="M 86.5,100.5 C 85.9202,102.749 84.5869,104.415 82.5,105.5C 83.0798,103.251 84.4131,101.585 86.5,100.5 Z"/></g>
<g><path style="opacity:0.423" fill="#fefffe" d="M 451.5,100.5 C 453.587,101.585 454.92,103.251 455.5,105.5C 453.413,104.415 452.08,102.749 451.5,100.5 Z"/></g>
<g><path style="opacity:0.396" fill="#fefffe" d="M 80.5,107.5 C 80.2624,109.404 79.2624,110.738 77.5,111.5C 77.7376,109.596 78.7376,108.262 80.5,107.5 Z"/></g>
<g><path style="opacity:0.371" fill="#f9f9fa" d="M 457.5,107.5 C 459.262,108.262 460.262,109.596 460.5,111.5C 458.738,110.738 457.738,109.404 457.5,107.5 Z"/></g>
<g><path style="opacity:0.443" fill="#fefffe" d="M 76.5,112.5 C 76.573,114.027 75.9063,115.027 74.5,115.5C 74.427,113.973 75.0937,112.973 76.5,112.5 Z"/></g>
<g><path style="opacity:0.416" fill="#fefffe" d="M 461.5,112.5 C 463.262,113.262 464.262,114.596 464.5,116.5C 462.738,115.738 461.738,114.404 461.5,112.5 Z"/></g>
<g><path style="opacity:0.414" fill="#fefffe" d="M 106.5,114.5 C 105.581,117.089 103.914,119.089 101.5,120.5C 102.419,117.911 104.086,115.911 106.5,114.5 Z"/></g>
<g><path style="opacity:0.407" fill="#fefffe" d="M 432.5,115.5 C 434.587,116.585 435.92,118.251 436.5,120.5C 434.413,119.415 433.08,117.749 432.5,115.5 Z"/></g>
<g><path style="opacity:0.48" fill="#fefffe" d="M 73.5,116.5 C 73.573,118.027 72.9063,119.027 71.5,119.5C 71.427,117.973 72.0937,116.973 73.5,116.5 Z"/></g>
<g><path style="opacity:0.332" fill="#fefffe" d="M 465.5,117.5 C 466.906,117.973 467.573,118.973 467.5,120.5C 466.094,120.027 465.427,119.027 465.5,117.5 Z"/></g>
<g><path style="opacity:0.389" fill="#fefffe" d="M 70.5,120.5 C 70.573,122.027 69.9063,123.027 68.5,123.5C 68.427,121.973 69.0937,120.973 70.5,120.5 Z"/></g>
<g><path style="opacity:0.433" fill="#fefffe" d="M 467.5,120.5 C 468.906,120.973 469.573,121.973 469.5,123.5C 468.094,123.027 467.427,122.027 467.5,120.5 Z"/></g>
<g><path style="opacity:0.416" fill="#fefffe" d="M 99.5,122.5 C 99.2624,124.404 98.2624,125.738 96.5,126.5C 96.7376,124.596 97.7376,123.262 99.5,122.5 Z"/></g>
<g><path style="opacity:0.433" fill="#fefffe" d="M 439.5,123.5 C 440.906,123.973 441.573,124.973 441.5,126.5C 440.094,126.027 439.427,125.027 439.5,123.5 Z"/></g>
<g><path style="opacity:0.933" fill="#f0f1f2" d="M 66.5,126.5 C 66.573,128.027 65.9063,129.027 64.5,129.5C 64.427,127.973 65.0937,126.973 66.5,126.5 Z"/></g>
<g><path style="opacity:0.428" fill="#fefffe" d="M 95.5,127.5 C 95.2624,129.404 94.2624,130.738 92.5,131.5C 92.7376,129.596 93.7376,128.262 95.5,127.5 Z"/></g>
<g><path style="opacity:0.382" fill="#fefffe" d="M 442.5,127.5 C 444.262,128.262 445.262,129.596 445.5,131.5C 443.738,130.738 442.738,129.404 442.5,127.5 Z"/></g>
<g><path style="opacity:0.441" fill="#fefffe" d="M 64.5,129.5 C 64.573,131.027 63.9063,132.027 62.5,132.5C 62.427,130.973 63.0937,129.973 64.5,129.5 Z"/></g>
<g><path style="opacity:0.351" fill="#fefffe" d="M 92.5,131.5 C 92.573,133.027 91.9063,134.027 90.5,134.5C 90.427,132.973 91.0937,131.973 92.5,131.5 Z"/></g>
<g><path style="opacity:0.404" fill="#fefffe" d="M 62.5,132.5 C 62.573,134.027 61.9063,135.027 60.5,135.5C 60.427,133.973 61.0937,132.973 62.5,132.5 Z"/></g>
<g><path style="opacity:0.48" fill="#fefffe" d="M 446.5,132.5 C 447.906,132.973 448.573,133.973 448.5,135.5C 447.094,135.027 446.427,134.027 446.5,132.5 Z"/></g>
<g><path style="opacity:0.451" fill="#fefffe" d="M 475.5,132.5 C 476.906,132.973 477.573,133.973 477.5,135.5C 476.094,135.027 475.427,134.027 475.5,132.5 Z"/></g>
<g><path style="opacity:0.419" fill="#fefffe" d="M 89.5,135.5 C 89.573,137.027 88.9063,138.027 87.5,138.5C 87.427,136.973 88.0937,135.973 89.5,135.5 Z"/></g>
<g><path style="opacity:0.373" fill="#fefffe" d="M 448.5,135.5 C 449.906,135.973 450.573,136.973 450.5,138.5C 449.094,138.027 448.427,137.027 448.5,135.5 Z"/></g>
<g><path style="opacity:0.406" fill="#fefffe" d="M 59.5,137.5 C 59.573,139.027 58.9063,140.027 57.5,140.5C 57.427,138.973 58.0937,137.973 59.5,137.5 Z"/></g>
<g><path style="opacity:0.457" fill="#fefffe" d="M 478.5,137.5 C 479.906,137.973 480.573,138.973 480.5,140.5C 479.094,140.027 478.427,139.027 478.5,137.5 Z"/></g>
<g><path style="opacity:0.377" fill="#fefffe" d="M 85.5,141.5 C 85.573,143.027 84.9063,144.027 83.5,144.5C 83.427,142.973 84.0937,141.973 85.5,141.5 Z"/></g>
<g><path style="opacity:0.376" fill="#fefffe" d="M 481.5,142.5 C 482.906,142.973 483.573,143.973 483.5,145.5C 482.094,145.027 481.427,144.027 481.5,142.5 Z"/></g>
<g><path style="opacity:0.431" fill="#fefffe" d="M 55.5,144.5 C 55.2503,146.674 54.2503,148.341 52.5,149.5C 52.7497,147.326 53.7497,145.659 55.5,144.5 Z"/></g>
<g><path style="opacity:0.419" fill="#fefffe" d="M 83.5,144.5 C 83.573,146.027 82.9063,147.027 81.5,147.5C 81.427,145.973 82.0937,144.973 83.5,144.5 Z"/></g>
<g><path style="opacity:0.363" fill="#fefffe" d="M 454.5,144.5 C 455.906,144.973 456.573,145.973 456.5,147.5C 455.094,147.027 454.427,146.027 454.5,144.5 Z"/></g>
<g><path style="opacity:0.644" fill="#fefffe" d="M 109.5,148.5 C 121.833,148.5 134.167,148.5 146.5,148.5C 146.5,215.5 146.5,282.5 146.5,349.5C 134.167,349.5 121.833,349.5 109.5,349.5C 109.5,282.5 109.5,215.5 109.5,148.5 Z"/></g>
<g><path style="opacity:0.462" fill="#fefffe" d="M 267.5,149.5 C 284.671,148.173 302.005,148.173 319.5,149.5C 316.085,153.92 312.085,157.586 307.5,160.5C 310.629,156.869 313.963,153.369 317.5,150C 300.837,149.5 284.17,149.333 267.5,149.5 Z"/></g>
<g><path style="opacity:0.414" fill="#fefffe" d="M 80.5,149.5 C 80.573,151.027 79.9063,152.027 78.5,152.5C 78.427,150.973 79.0937,149.973 80.5,149.5 Z"/></g>
<g><path style="opacity:1" fill="#080504" d="M 110.5,149.5 C 122.167,149.5 133.833,149.5 145.5,149.5C 145.5,215.833 145.5,282.167 145.5,348.5C 133.833,348.5 122.167,348.5 110.5,348.5C 110.5,282.167 110.5,215.833 110.5,149.5 Z"/></g>
<g><path style="opacity:1" fill="#110e0e" d="M 267.5,149.5 C 284.17,149.333 300.837,149.5 317.5,150C 313.963,153.369 310.629,156.869 307.5,160.5C 302.167,166.5 296.5,172.167 290.5,177.5C 284.224,182.107 278.557,187.441 273.5,193.5C 268.167,199.5 262.5,205.167 256.5,210.5C 255.167,210.5 254.5,211.167 254.5,212.5C 253.5,214.167 252.167,215.5 250.5,216.5C 244.892,220.439 239.892,225.106 235.5,230.5C 234.5,230.833 233.833,231.5 233.5,232.5C 228.37,238.131 223.036,243.631 217.5,249C 224.703,256.035 231.703,263.202 238.5,270.5C 243.89,276.892 249.89,282.559 256.5,287.5C 263.5,293.833 270.167,300.5 276.5,307.5C 281.63,313.131 286.964,318.631 292.5,324C 294.387,324.78 296.054,324.613 297.5,323.5C 333.971,314.469 370.637,305.802 407.5,297.5C 409.288,297.785 410.955,297.452 412.5,296.5C 412.376,295.893 412.043,295.56 411.5,295.5C 408.5,293.167 405.833,290.5 403.5,287.5C 401.234,283.564 398.234,280.231 394.5,277.5C 391.5,275.167 388.833,272.5 386.5,269.5C 384.234,265.564 381.234,262.231 377.5,259.5C 374.167,256.833 371.167,253.833 368.5,250.5C 366.234,246.564 363.234,243.231 359.5,240.5C 356.167,237.833 353.167,234.833 350.5,231.5C 350.315,229.804 349.481,228.471 348,227.5C 347.283,228.044 346.783,228.711 346.5,229.5C 346.5,230.167 346.167,230.5 345.5,230.5C 342.573,231.757 340.239,233.757 338.5,236.5C 337.167,238.5 335.5,240.167 333.5,241.5C 330.573,242.757 328.239,244.757 326.5,247.5C 324.833,249.833 322.833,251.833 320.5,253.5C 317.573,254.757 315.239,256.757 313.5,259.5C 312.167,261.5 310.5,263.167 308.5,264.5C 305.236,266.094 302.569,268.427 300.5,271.5C 300.103,272.525 299.437,272.692 298.5,272C 296.959,270.629 295.625,269.129 294.5,267.5C 293.243,264.573 291.243,262.239 288.5,260.5C 286.167,258.833 284.167,256.833 282.5,254.5C 281.5,252.5 280.5,250.5 279.5,248.5C 282.427,247.243 284.761,245.243 286.5,242.5C 287.833,240.5 289.5,238.833 291.5,237.5C 294.427,236.243 296.761,234.243 298.5,231.5C 300.167,229.167 302.167,227.167 304.5,225.5C 307.427,224.243 309.761,222.243 311.5,219.5C 312.833,217.5 314.5,215.833 316.5,214.5C 319.427,213.243 321.761,211.243 323.5,208.5C 325.167,206.167 327.167,204.167 329.5,202.5C 332.427,201.243 334.761,199.243 336.5,196.5C 338.167,194.167 340.167,192.167 342.5,190.5C 345.167,188.833 347.833,187.167 350.5,185.5C 351.833,186.167 352.833,187.167 353.5,188.5C 354.757,191.427 356.757,193.761 359.5,195.5C 364.833,200.167 369.833,205.167 374.5,210.5C 377.101,214.771 380.434,218.437 384.5,221.5C 387.5,223.833 390.167,226.5 392.5,229.5C 395.101,233.771 398.434,237.437 402.5,240.5C 405.833,243.167 408.833,246.167 411.5,249.5C 414.101,253.771 417.434,257.437 421.5,260.5C 424.5,262.833 427.167,265.5 429.5,268.5C 432.101,272.771 435.434,276.437 439.5,279.5C 442.5,281.833 445.167,284.5 447.5,287.5C 449.094,290.764 451.427,293.431 454.5,295.5C 455.167,295.5 455.5,295.833 455.5,296.5C 455.66,298.153 456.326,299.486 457.5,300.5C 460.121,307.946 458.121,313.946 451.5,318.5C 449.847,318.66 448.514,319.326 447.5,320.5C 392.797,334.258 337.797,347.258 282.5,359.5C 280.801,359.66 279.134,359.494 277.5,359C 275.963,357.293 274.296,355.793 272.5,354.5C 267.167,349.833 262.167,344.833 257.5,339.5C 243.552,323.885 228.886,308.885 213.5,294.5C 204.167,285.833 195.167,276.833 186.5,267.5C 178.35,266.507 170.017,266.174 161.5,266.5C 161.5,254.833 161.5,243.167 161.5,231.5C 170.017,231.826 178.35,231.493 186.5,230.5C 213.167,203.167 240.167,176.167 267.5,149.5 Z"/></g>
<g><path style="opacity:0.356" fill="#f4f4f5" d="M 456.5,147.5 C 458.25,148.659 459.25,150.326 459.5,152.5C 457.75,151.341 456.75,149.674 456.5,147.5 Z"/></g>
<g><path style="opacity:0.43" fill="#fefffe" d="M 460.5,154.5 C 461.906,154.973 462.573,155.973 462.5,157.5C 461.094,157.027 460.427,156.027 460.5,154.5 Z"/></g>
<g><path style="opacity:0.418" fill="#fefffe" d="M 76.5,156.5 C 76.2503,158.674 75.2503,160.341 73.5,161.5C 73.7497,159.326 74.7497,157.659 76.5,156.5 Z"/></g>
<g><path style="opacity:0.404" fill="#f6f6f6" d="M 49.5,155.5 C 49.2927,158.241 48.2927,160.574 46.5,162.5C 46.7073,159.759 47.7073,157.426 49.5,155.5 Z"/></g>
<g><path style="opacity:0.401" fill="#fcfdfd" d="M 489.5,157.5 C 491.293,159.426 492.293,161.759 492.5,164.5C 490.707,162.574 489.707,160.241 489.5,157.5 Z"/></g>
<g><path style="opacity:0.425" fill="#fefffe" d="M 493.5,166.5 C 494.931,167.78 495.598,169.447 495.5,171.5C 494.069,170.22 493.402,168.553 493.5,166.5 Z"/></g>
<g><path style="opacity:0.399" fill="#f9fafa" d="M 70.5,167.5 C 70.5979,169.553 69.9313,171.22 68.5,172.5C 68.4021,170.447 69.0687,168.78 70.5,167.5 Z"/></g>
<g><path style="opacity:0.454" fill="#fefffe" d="M 468.5,169.5 C 469.931,170.78 470.598,172.447 470.5,174.5C 469.069,173.22 468.402,171.553 468.5,169.5 Z"/></g>
<g><path style="opacity:0.4" fill="#fefffe" d="M 495.5,171.5 C 496.931,172.78 497.598,174.447 497.5,176.5C 496.069,175.22 495.402,173.553 495.5,171.5 Z"/></g>
<g><path style="opacity:0.417" fill="#fefffe" d="M 290.5,177.5 C 285.443,183.559 279.776,188.893 273.5,193.5C 278.557,187.441 284.224,182.107 290.5,177.5 Z"/></g>
<g><path style="opacity:0.418" fill="#fefffe" d="M 350.5,185.5 C 347.833,187.167 345.167,188.833 342.5,190.5C 343.96,188.537 345.627,186.704 347.5,185C 348.749,184.26 349.749,184.427 350.5,185.5 Z"/></g>
<g><path style="opacity:0.404" fill="#fefffe" d="M 353.5,188.5 C 356.243,190.239 358.243,192.573 359.5,195.5C 356.757,193.761 354.757,191.427 353.5,188.5 Z"/></g>
<g><path style="opacity:0.416" fill="#fbfcfc" d="M 336.5,196.5 C 334.761,199.243 332.427,201.243 329.5,202.5C 331.239,199.757 333.573,197.757 336.5,196.5 Z"/></g>
<g><path style="opacity:0.433" fill="#fbfcfc" d="M 323.5,208.5 C 321.761,211.243 319.427,213.243 316.5,214.5C 318.239,211.757 320.573,209.757 323.5,208.5 Z"/></g>
<g><path style="opacity:0.399" fill="#fefffe" d="M 256.5,210.5 C 256.167,211.5 255.5,212.167 254.5,212.5C 254.5,211.167 255.167,210.5 256.5,210.5 Z"/></g>
<g><path style="opacity:0.415" fill="#fefffe" d="M 374.5,210.5 C 378.566,213.563 381.899,217.229 384.5,221.5C 380.434,218.437 377.101,214.771 374.5,210.5 Z"/></g>
<g><path style="opacity:0.432" fill="#fefffe" d="M 250.5,216.5 C 246.108,221.894 241.108,226.561 235.5,230.5C 239.892,225.106 244.892,220.439 250.5,216.5 Z"/></g>
<g><path style="opacity:0.41" fill="#fbfcfc" d="M 311.5,219.5 C 309.761,222.243 307.427,224.243 304.5,225.5C 306.239,222.757 308.573,220.757 311.5,219.5 Z"/></g>
<g><path style="opacity:0.453" fill="#edeeee" d="M 350.5,231.5 C 349.395,230.4 348.062,229.733 346.5,229.5C 346.783,228.711 347.283,228.044 348,227.5C 349.481,228.471 350.315,229.804 350.5,231.5 Z"/></g>
<g><path style="opacity:0.759" fill="#fefffe" d="M 186.5,230.5 C 178.35,231.493 170.017,231.826 161.5,231.5C 161.5,243.167 161.5,254.833 161.5,266.5C 170.017,266.174 178.35,266.507 186.5,267.5C 177.833,267.5 169.167,267.5 160.5,267.5C 160.5,255.167 160.5,242.833 160.5,230.5C 169.167,230.5 177.833,230.5 186.5,230.5 Z"/></g>
<g><path style="opacity:0.409" fill="#fefffe" d="M 235.5,230.5 C 235.5,231.833 234.833,232.5 233.5,232.5C 233.833,231.5 234.5,230.833 235.5,230.5 Z"/></g>
<g><path style="opacity:0.419" fill="#fefffe" d="M 345.5,230.5 C 343.761,233.243 341.427,235.243 338.5,236.5C 340.239,233.757 342.573,231.757 345.5,230.5 Z"/></g>
<g><path style="opacity:0.419" fill="#f6f6f7" d="M 392.5,229.5 C 396.566,232.563 399.899,236.229 402.5,240.5C 398.434,237.437 395.101,233.771 392.5,229.5 Z"/></g>
<g><path style="opacity:0.427" fill="#fbfcfc" d="M 298.5,231.5 C 296.761,234.243 294.427,236.243 291.5,237.5C 293.239,234.757 295.573,232.757 298.5,231.5 Z"/></g>
<g><path style="opacity:0.424" fill="#fefffe" d="M 359.5,240.5 C 363.234,243.231 366.234,246.564 368.5,250.5C 364.766,247.769 361.766,244.436 359.5,240.5 Z"/></g>
<g><path style="opacity:0.423" fill="#fefffe" d="M 286.5,242.5 C 284.761,245.243 282.427,247.243 279.5,248.5C 281.239,245.757 283.573,243.757 286.5,242.5 Z"/></g>
<g><path style="opacity:0.421" fill="#fdfdfd" d="M 333.5,241.5 C 331.761,244.243 329.427,246.243 326.5,247.5C 328.239,244.757 330.573,242.757 333.5,241.5 Z"/></g>
<g><path style="opacity:0.408" fill="#fefffe" d="M 279.5,248.5 C 280.5,250.5 281.5,252.5 282.5,254.5C 279.431,253.196 278.431,251.196 279.5,248.5 Z"/></g>
<g><path style="opacity:0.41" fill="#f6f6f7" d="M 411.5,249.5 C 415.566,252.563 418.899,256.229 421.5,260.5C 417.434,257.437 414.101,253.771 411.5,249.5 Z"/></g>
<g><path style="opacity:0.427" fill="#fefffe" d="M 320.5,253.5 C 318.761,256.243 316.427,258.243 313.5,259.5C 315.239,256.757 317.573,254.757 320.5,253.5 Z"/></g>
<g><path style="opacity:0.414" fill="#f7f7f8" d="M 377.5,259.5 C 381.234,262.231 384.234,265.564 386.5,269.5C 382.766,266.769 379.766,263.436 377.5,259.5 Z"/></g>
<g><path style="opacity:0.415" fill="#fefffe" d="M 288.5,260.5 C 291.243,262.239 293.243,264.573 294.5,267.5C 291.757,265.761 289.757,263.427 288.5,260.5 Z"/></g>
<g><path style="opacity:0.416" fill="#fdfdfd" d="M 308.5,264.5 C 306.431,267.573 303.764,269.906 300.5,271.5C 302.569,268.427 305.236,266.094 308.5,264.5 Z"/></g>
<g><path style="opacity:0.403" fill="#f6f6f7" d="M 429.5,268.5 C 433.566,271.563 436.899,275.229 439.5,279.5C 435.434,276.437 432.101,272.771 429.5,268.5 Z"/></g>
<g><path style="opacity:0.4" fill="#fefffe" d="M 238.5,270.5 C 245.11,275.441 251.11,281.108 256.5,287.5C 249.89,282.559 243.89,276.892 238.5,270.5 Z"/></g>
<g><path style="opacity:0.415" fill="#fefffe" d="M 394.5,277.5 C 398.234,280.231 401.234,283.564 403.5,287.5C 399.766,284.769 396.766,281.436 394.5,277.5 Z"/></g>
<g><path style="opacity:0.446" fill="#fefffe" d="M 447.5,287.5 C 450.573,289.569 452.906,292.236 454.5,295.5C 451.427,293.431 449.094,290.764 447.5,287.5 Z"/></g>
<g><path style="opacity:0.35" fill="#fdfdfe" d="M 213.5,294.5 C 228.886,308.885 243.552,323.885 257.5,339.5C 242.114,325.115 227.448,310.115 213.5,294.5 Z"/></g>
<g><path style="opacity:0.468" fill="#fefffe" d="M 411.5,295.5 C 412.043,295.56 412.376,295.893 412.5,296.5C 410.955,297.452 409.288,297.785 407.5,297.5C 408.833,296.833 410.167,296.167 411.5,295.5 Z"/></g>
<g><path style="opacity:0.423" fill="#fefffe" d="M 455.5,296.5 C 457.104,297.287 457.771,298.62 457.5,300.5C 456.326,299.486 455.66,298.153 455.5,296.5 Z"/></g>
<g><path style="opacity:0.421" fill="#fefffe" d="M 276.5,307.5 C 282.576,312.069 288.242,317.236 293.5,323C 294.793,323.49 296.127,323.657 297.5,323.5C 296.054,324.613 294.387,324.78 292.5,324C 286.964,318.631 281.63,313.131 276.5,307.5 Z"/></g>
<g><path style="opacity:0.422" fill="#fefffe" d="M 451.5,318.5 C 450.713,320.104 449.38,320.771 447.5,320.5C 448.514,319.326 449.847,318.66 451.5,318.5 Z"/></g>
<g><path style="opacity:0.414" fill="#fefffe" d="M 478.5,325.5 C 478.598,327.553 477.931,329.22 476.5,330.5C 476.402,328.447 477.069,326.78 478.5,325.5 Z"/></g>
<g><path style="opacity:0.393" fill="#fefffe" d="M 498.5,341.5 C 498.598,343.553 497.931,345.22 496.5,346.5C 496.402,344.447 497.069,342.78 498.5,341.5 Z"/></g>
<g><path style="opacity:0.437" fill="#fefffe" d="M 66.5,343.5 C 67.9313,344.78 68.5979,346.447 68.5,348.5C 67.0687,347.22 66.4021,345.553 66.5,343.5 Z"/></g>
<g><path style="opacity:0.414" fill="#fefffe" d="M 496.5,346.5 C 496.598,348.553 495.931,350.22 494.5,351.5C 494.402,349.447 495.069,347.78 496.5,346.5 Z"/></g>
<g><path style="opacity:0.413" fill="#f9fafa" d="M 44.5,353.5 C 45.9313,354.78 46.5979,356.447 46.5,358.5C 45.0687,357.22 44.4021,355.553 44.5,353.5 Z"/></g>
<g><path style="opacity:0.419" fill="#fefffe" d="M 272.5,354.5 C 274.296,355.793 275.963,357.293 277.5,359C 279.134,359.494 280.801,359.66 282.5,359.5C 277.505,361.556 274.171,359.889 272.5,354.5 Z"/></g>
<g><path style="opacity:0.48" fill="#fefffe" d="M 489.5,362.5 C 489.771,364.38 489.104,365.713 487.5,366.5C 487.66,364.847 488.326,363.514 489.5,362.5 Z"/></g>
<g><path style="opacity:0.442" fill="#fefffe" d="M 76.5,364.5 C 77.9063,364.973 78.573,365.973 78.5,367.5C 77.0937,367.027 76.427,366.027 76.5,364.5 Z"/></g>
<g><path style="opacity:0.377" fill="#fefffe" d="M 461.5,364.5 C 461.573,366.027 460.906,367.027 459.5,367.5C 459.427,365.973 460.094,364.973 461.5,364.5 Z"/></g>
<g><path style="opacity:0.372" fill="#fefffe" d="M 79.5,369.5 C 80.9063,369.973 81.573,370.973 81.5,372.5C 80.0937,372.027 79.427,371.027 79.5,369.5 Z"/></g>
<g><path style="opacity:0.464" fill="#fefffe" d="M 457.5,371.5 C 457.573,373.027 456.906,374.027 455.5,374.5C 455.427,372.973 456.094,371.973 457.5,371.5 Z"/></g>
<g><path style="opacity:0.47" fill="#fefffe" d="M 82.5,374.5 C 83.9063,374.973 84.573,375.973 84.5,377.5C 83.0937,377.027 82.427,376.027 82.5,374.5 Z"/></g>
<g><path style="opacity:0.407" fill="#fefffe" d="M 455.5,374.5 C 455.573,376.027 454.906,377.027 453.5,377.5C 453.427,375.973 454.094,374.973 455.5,374.5 Z"/></g>
<g><path style="opacity:0.405" fill="#fefffe" d="M 55.5,376.5 C 56.9063,376.973 57.573,377.973 57.5,379.5C 56.0937,379.027 55.427,378.027 55.5,376.5 Z"/></g>
<g><path style="opacity:0.455" fill="#fefffe" d="M 482.5,376.5 C 482.573,378.027 481.906,379.027 480.5,379.5C 480.427,377.973 481.094,376.973 482.5,376.5 Z"/></g>
<g><path style="opacity:0.426" fill="#fefffe" d="M 84.5,377.5 C 85.9063,377.973 86.573,378.973 86.5,380.5C 85.0937,380.027 84.427,379.027 84.5,377.5 Z"/></g>
<g><path style="opacity:0.377" fill="#fefffe" d="M 453.5,377.5 C 453.573,379.027 452.906,380.027 451.5,380.5C 451.427,378.973 452.094,377.973 453.5,377.5 Z"/></g>
<g><path style="opacity:0.421" fill="#fefffe" d="M 86.5,380.5 C 87.9063,380.973 88.573,381.973 88.5,383.5C 87.0937,383.027 86.427,382.027 86.5,380.5 Z"/></g>
<g><path style="opacity:0.375" fill="#fefffe" d="M 451.5,380.5 C 451.573,382.027 450.906,383.027 449.5,383.5C 449.427,381.973 450.094,380.973 451.5,380.5 Z"/></g>
<g><path style="opacity:0.366" fill="#fefffe" d="M 59.5,383.5 C 60.9063,383.973 61.573,384.973 61.5,386.5C 60.0937,386.027 59.427,385.027 59.5,383.5 Z"/></g>
<g><path style="opacity:0.478" fill="#fefffe" d="M 449.5,383.5 C 449.573,385.027 448.906,386.027 447.5,386.5C 447.427,384.973 448.094,383.973 449.5,383.5 Z"/></g>
<g><path style="opacity:0.414" fill="#fefffe" d="M 478.5,383.5 C 478.573,385.027 477.906,386.027 476.5,386.5C 476.427,384.973 477.094,383.973 478.5,383.5 Z"/></g>
<g><path style="opacity:0.349" fill="#fefffe" d="M 89.5,384.5 C 90.9063,384.973 91.573,385.973 91.5,387.5C 90.0937,387.027 89.427,386.027 89.5,384.5 Z"/></g>
<g><path style="opacity:0.429" fill="#fefffe" d="M 61.5,386.5 C 62.9063,386.973 63.573,387.973 63.5,389.5C 62.0937,389.027 61.427,388.027 61.5,386.5 Z"/></g>
<g><path style="opacity:0.465" fill="#fefffe" d="M 91.5,387.5 C 92.9063,387.973 93.573,388.973 93.5,390.5C 92.0937,390.027 91.427,389.027 91.5,387.5 Z"/></g>
<g><path style="opacity:0.407" fill="#fefffe" d="M 446.5,387.5 C 446.573,389.027 445.906,390.027 444.5,390.5C 444.427,388.973 445.094,387.973 446.5,387.5 Z"/></g>
<g><path style="opacity:0.47" fill="#fefffe" d="M 63.5,389.5 C 64.9063,389.973 65.573,390.973 65.5,392.5C 64.0937,392.027 63.427,391.027 63.5,389.5 Z"/></g>
<g><path style="opacity:0.425" fill="#fefffe" d="M 95.5,392.5 C 96.9063,392.973 97.573,393.973 97.5,395.5C 96.0937,395.027 95.427,394.027 95.5,392.5 Z"/></g>
<g><path style="opacity:0.373" fill="#e8e8e9" d="M 443.5,391.5 C 443.262,393.404 442.262,394.738 440.5,395.5C 440.738,393.596 441.738,392.262 443.5,391.5 Z"/></g>
<g><path style="opacity:0.425" fill="#fefffe" d="M 67.5,395.5 C 68.9063,395.973 69.573,396.973 69.5,398.5C 68.0937,398.027 67.427,397.027 67.5,395.5 Z"/></g>
<g><path style="opacity:0.48" fill="#fefffe" d="M 470.5,395.5 C 470.573,397.027 469.906,398.027 468.5,398.5C 468.427,396.973 469.094,395.973 470.5,395.5 Z"/></g>
<g><path style="opacity:0.443" fill="#fefffe" d="M 439.5,396.5 C 438.92,398.749 437.587,400.415 435.5,401.5C 436.08,399.251 437.413,397.585 439.5,396.5 Z"/></g>
<g><path style="opacity:0.403" fill="#fefffe" d="M 99.5,397.5 C 101.587,398.585 102.92,400.251 103.5,402.5C 101.413,401.415 100.08,399.749 99.5,397.5 Z"/></g>
<g><path style="opacity:0.327" fill="#fefffe" d="M 69.5,398.5 C 70.9063,398.973 71.573,399.973 71.5,401.5C 70.0937,401.027 69.427,400.027 69.5,398.5 Z"/></g>
<g><path style="opacity:0.373" fill="#fefffe" d="M 468.5,398.5 C 468.573,400.027 467.906,401.027 466.5,401.5C 466.427,399.973 467.094,398.973 468.5,398.5 Z"/></g>
<g><path style="opacity:0.406" fill="#fefffe" d="M 72.5,402.5 C 73.9063,402.973 74.573,403.973 74.5,405.5C 73.0937,405.027 72.427,404.027 72.5,402.5 Z"/></g>
<g><path style="opacity:0.451" fill="#fefffe" d="M 465.5,402.5 C 465.573,404.027 464.906,405.027 463.5,405.5C 463.427,403.973 464.094,402.973 465.5,402.5 Z"/></g>
<g><path style="opacity:0.474" fill="#f5f6f6" d="M 432.5,404.5 C 429.5,409.5 425.5,413.5 420.5,416.5C 424.167,412.167 428.167,408.167 432.5,404.5 Z"/></g>
<g><path style="opacity:0.381" fill="#fefffe" d="M 75.5,406.5 C 77.2624,407.262 78.2624,408.596 78.5,410.5C 76.7376,409.738 75.7376,408.404 75.5,406.5 Z"/></g>
<g><path style="opacity:0.429" fill="#fefffe" d="M 462.5,406.5 C 462.262,408.404 461.262,409.738 459.5,410.5C 459.738,408.596 460.738,407.262 462.5,406.5 Z"/></g>
<g><path style="opacity:0.471" fill="#ebebec" d="M 108.5,407.5 C 111.167,409.5 113.5,411.833 115.5,414.5C 112.167,413.167 109.833,410.833 108.5,407.5 Z"/></g>
<g><path style="opacity:0.455" fill="#fefffe" d="M 80.5,412.5 C 82.2624,413.262 83.2624,414.596 83.5,416.5C 81.7376,415.738 80.7376,414.404 80.5,412.5 Z"/></g>
<g><path style="opacity:0.466" fill="#fefffe" d="M 457.5,412.5 C 457.573,414.027 456.906,415.027 455.5,415.5C 455.427,413.973 456.094,412.973 457.5,412.5 Z"/></g>
<g><path style="opacity:0.436" fill="#f6f7f7" d="M 452.5,418.5 C 450.57,422.1 447.903,425.1 444.5,427.5C 446.43,423.9 449.097,420.9 452.5,418.5 Z"/></g>
<g><path style="opacity:0.447" fill="#f1f2f2" d="M 86.5,419.5 C 90.5658,422.563 93.8991,426.229 96.5,430.5C 92.4342,427.437 89.1009,423.771 86.5,419.5 Z"/></g>
<g><path style="opacity:0.433" fill="#fefffe" d="M 122.5,421.5 C 124.404,421.738 125.738,422.738 126.5,424.5C 124.596,424.262 123.262,423.262 122.5,421.5 Z"/></g>
<g><path style="opacity:0.398" fill="#fefffe" d="M 415.5,421.5 C 414.738,423.262 413.404,424.262 411.5,424.5C 412.262,422.738 413.596,421.738 415.5,421.5 Z"/></g>
<g><path style="opacity:0.453" fill="#fefffe" d="M 129.5,427.5 C 131.027,427.427 132.027,428.094 132.5,429.5C 130.973,429.573 129.973,428.906 129.5,427.5 Z"/></g>
<g><path style="opacity:0.413" fill="#fefffe" d="M 408.5,427.5 C 408.027,428.906 407.027,429.573 405.5,429.5C 405.973,428.094 406.973,427.427 408.5,427.5 Z"/></g>
<g><path style="opacity:0.386" fill="#fefffe" d="M 133.5,430.5 C 135.027,430.427 136.027,431.094 136.5,432.5C 134.973,432.573 133.973,431.906 133.5,430.5 Z"/></g>
<g><path style="opacity:0.424" fill="#fefffe" d="M 404.5,430.5 C 403.738,432.262 402.404,433.262 400.5,433.5C 401.262,431.738 402.596,430.738 404.5,430.5 Z"/></g>
<g><path style="opacity:0.417" fill="#fcfcfc" d="M 96.5,430.5 C 100.1,432.43 103.1,435.097 105.5,438.5C 101.9,436.57 98.8998,433.903 96.5,430.5 Z"/></g>
<g><path style="opacity:0.431" fill="#fefffe" d="M 439.5,432.5 C 437.431,435.573 434.764,437.906 431.5,439.5C 433.569,436.427 436.236,434.094 439.5,432.5 Z"/></g>
<g><path style="opacity:0.387" fill="#fefffe" d="M 137.5,433.5 C 139.027,433.427 140.027,434.094 140.5,435.5C 138.973,435.573 137.973,434.906 137.5,433.5 Z"/></g>
<g><path style="opacity:0.356" fill="#fefffe" d="M 400.5,433.5 C 400.027,434.906 399.027,435.573 397.5,435.5C 397.973,434.094 398.973,433.427 400.5,433.5 Z"/></g>
<g><path style="opacity:0.477" fill="#fefffe" d="M 396.5,436.5 C 396.027,437.906 395.027,438.573 393.5,438.5C 393.973,437.094 394.973,436.427 396.5,436.5 Z"/></g>
<g><path style="opacity:0.445" fill="#fefffe" d="M 144.5,438.5 C 146.027,438.427 147.027,439.094 147.5,440.5C 145.973,440.573 144.973,439.906 144.5,438.5 Z"/></g>
<g><path style="opacity:0.415" fill="#fefffe" d="M 393.5,438.5 C 393.027,439.906 392.027,440.573 390.5,440.5C 390.973,439.094 391.973,438.427 393.5,438.5 Z"/></g>
<g><path style="opacity:0.467" fill="#fefffe" d="M 390.5,440.5 C 390.027,441.906 389.027,442.573 387.5,442.5C 387.973,441.094 388.973,440.427 390.5,440.5 Z"/></g>
<g><path style="opacity:0.401" fill="#fefffe" d="M 108.5,441.5 C 110.749,442.08 112.415,443.413 113.5,445.5C 111.251,444.92 109.585,443.587 108.5,441.5 Z"/></g>
<g><path style="opacity:0.403" fill="#fefffe" d="M 428.5,442.5 C 427.738,444.262 426.404,445.262 424.5,445.5C 425.262,443.738 426.596,442.738 428.5,442.5 Z"/></g>
<g><path style="opacity:0.37" fill="#fefffe" d="M 152.5,443.5 C 154.027,443.427 155.027,444.094 155.5,445.5C 153.973,445.573 152.973,444.906 152.5,443.5 Z"/></g>
<g><path style="opacity:0.335" fill="#fefffe" d="M 385.5,443.5 C 385.027,444.906 384.027,445.573 382.5,445.5C 382.973,444.094 383.973,443.427 385.5,443.5 Z"/></g>
<g><path style="opacity:0.426" fill="#fefffe" d="M 157.5,446.5 C 159.027,446.427 160.027,447.094 160.5,448.5C 158.973,448.573 157.973,447.906 157.5,446.5 Z"/></g>
<g><path style="opacity:0.399" fill="#fefffe" d="M 380.5,446.5 C 380.027,447.906 379.027,448.573 377.5,448.5C 377.973,447.094 378.973,446.427 380.5,446.5 Z"/></g>
<g><path style="opacity:0.356" fill="#e8e8e9" d="M 114.5,446.5 C 116.404,446.738 117.738,447.738 118.5,449.5C 116.596,449.262 115.262,448.262 114.5,446.5 Z"/></g>
<g><path style="opacity:0.394" fill="#fefffe" d="M 422.5,447.5 C 422.027,448.906 421.027,449.573 419.5,449.5C 419.973,448.094 420.973,447.427 422.5,447.5 Z"/></g>
<g><path style="opacity:0.413" fill="#fefffe" d="M 119.5,450.5 C 121.027,450.427 122.027,451.094 122.5,452.5C 120.973,452.573 119.973,451.906 119.5,450.5 Z"/></g>
<g><path style="opacity:0.453" fill="#fefffe" d="M 418.5,450.5 C 418.027,451.906 417.027,452.573 415.5,452.5C 415.973,451.094 416.973,450.427 418.5,450.5 Z"/></g>
<g><path style="opacity:0.4" fill="#fefffe" d="M 123.5,453.5 C 125.027,453.427 126.027,454.094 126.5,455.5C 124.973,455.573 123.973,454.906 123.5,453.5 Z"/></g>
<g><path style="opacity:0.437" fill="#fefffe" d="M 414.5,453.5 C 414.027,454.906 413.027,455.573 411.5,455.5C 411.973,454.094 412.973,453.427 414.5,453.5 Z"/></g>
<g><path style="opacity:0.473" fill="#fefffe" d="M 126.5,455.5 C 128.027,455.427 129.027,456.094 129.5,457.5C 127.973,457.573 126.973,456.906 126.5,455.5 Z"/></g>
<g><path style="opacity:0.413" fill="#fefffe" d="M 178.5,457.5 C 180.553,457.402 182.22,458.069 183.5,459.5C 181.447,459.598 179.78,458.931 178.5,457.5 Z"/></g>
<g><path style="opacity:0.39" fill="#fefffe" d="M 359.5,457.5 C 358.22,458.931 356.553,459.598 354.5,459.5C 355.78,458.069 357.447,457.402 359.5,457.5 Z"/></g>
<g><path style="opacity:0.335" fill="#fefffe" d="M 133.5,460.5 C 135.027,460.427 136.027,461.094 136.5,462.5C 134.973,462.573 133.973,461.906 133.5,460.5 Z"/></g>
<g><path style="opacity:0.364" fill="#fefffe" d="M 404.5,460.5 C 404.027,461.906 403.027,462.573 401.5,462.5C 401.973,461.094 402.973,460.427 404.5,460.5 Z"/></g>
<g><path style="opacity:0.4" fill="#fefffe" d="M 191.5,462.5 C 193.553,462.402 195.22,463.069 196.5,464.5C 194.447,464.598 192.78,463.931 191.5,462.5 Z"/></g>
<g><path style="opacity:0.43" fill="#fefffe" d="M 138.5,463.5 C 140.027,463.427 141.027,464.094 141.5,465.5C 139.973,465.573 138.973,464.906 138.5,463.5 Z"/></g>
<g><path style="opacity:0.466" fill="#fefffe" d="M 399.5,463.5 C 399.027,464.906 398.027,465.573 396.5,465.5C 396.973,464.094 397.973,463.427 399.5,463.5 Z"/></g>
<g><path style="opacity:0.396" fill="#fefffe" d="M 141.5,465.5 C 143.674,465.75 145.341,466.75 146.5,468.5C 144.326,468.25 142.659,467.25 141.5,465.5 Z"/></g>
<g><path style="opacity:0.365" fill="#fefffe" d="M 396.5,465.5 C 396.027,466.906 395.027,467.573 393.5,467.5C 393.973,466.094 394.973,465.427 396.5,465.5 Z"/></g>
<g><path style="opacity:0.413" fill="#fdfdfd" d="M 389.5,469.5 C 386.992,471.924 383.992,473.59 380.5,474.5C 383.008,472.076 386.008,470.41 389.5,469.5 Z"/></g>
<g><path style="opacity:0.437" fill="#f8f8f8" d="M 150.5,470.5 C 155.32,472.074 159.653,474.407 163.5,477.5C 158.68,475.926 154.347,473.593 150.5,470.5 Z"/></g>
<g><path style="opacity:0.393" fill="#fefffe" d="M 163.5,477.5 C 165.553,477.402 167.22,478.069 168.5,479.5C 166.447,479.598 164.78,478.931 163.5,477.5 Z"/></g>
<g><path style="opacity:0.42" fill="#fefffe" d="M 374.5,477.5 C 373.22,478.931 371.553,479.598 369.5,479.5C 370.78,478.069 372.447,477.402 374.5,477.5 Z"/></g>
<g><path style="opacity:0.429" fill="#fefffe" d="M 357.5,484.5 C 356.22,485.931 354.553,486.598 352.5,486.5C 353.78,485.069 355.447,484.402 357.5,484.5 Z"/></g>
<g><path style="opacity:0.435" fill="#fefffe" d="M 186.5,486.5 C 188.553,486.402 190.22,487.069 191.5,488.5C 189.447,488.598 187.78,487.931 186.5,486.5 Z"/></g>
</svg>
