<?xml version="1.0" encoding="utf-8"?>
<!-- Uploaded to: SVG Repo, www.svgrepo.com, Generator: SVG Repo Mixer Tools -->
<svg fill="#000000" height="800px" width="800px" version="1.1" id="Layer_1" xmlns="http://www.w3.org/2000/svg" xmlns:xlink="http://www.w3.org/1999/xlink" 
	 viewBox="0 0 64 64" enable-background="new 0 0 64 64" xml:space="preserve">
<g id="Picture">
	<path d="M0,3.26315v57.4737015h64V3.26315H0z M62,5.2631502V34.480751L47.1523018,20.5346508
		c-0.1992035-0.1875-0.4580002-0.2890015-0.7422028-0.2695007c-0.2733994,0.0156002-0.5282974,0.1425991-0.7059975,0.352499
		L28.4267006,41.04245L15.4111004,30.3715496c-0.3984003-0.3270988-0.9863005-0.2967987-1.3496008,0.075201L2,42.8066483V5.2631502
		H62z M2,58.7368507V45.6702499l12.8525-13.1707001l13.0684004,10.7137985
		c0.4228001,0.347702,1.044899,0.2901001,1.3973999-0.1278992l17.2325001-20.3720989L62,37.2237511v21.5130997H2z"/>
	<path d="M26,26.2631493c3.8593006,0,7-3.1406002,7-7c0-3.8592997-3.1406994-6.999999-7-6.999999
		c-3.8593998,0-7,3.1406994-7,6.999999C19,23.1225491,22.1406002,26.2631493,26,26.2631493z M26,14.2631502
		c2.7567997,0,5,2.2431993,5,4.999999c0,2.7569008-2.2432003,5-5,5c-2.7569008,0-5-2.2430992-5-5
		C21,16.5063496,23.2430992,14.2631502,26,14.2631502z"/>
</g>
</svg>